<?xml version="1.0" encoding="utf-8"?>
<!-- Generator: Adobe Illustrator 21.1.0, SVG Export Plug-In . SVG Version: 6.00 Build 0)  -->
<svg version="1.1" id="Layer_1" xmlns="http://www.w3.org/2000/svg" xmlns:xlink="http://www.w3.org/1999/xlink" x="0px" y="0px"
	 viewBox="0 0 320 280" style="enable-background:new 0 0 320 280;" xml:space="preserve">
<style type="text/css">
	.st0{fill:#99D9FF;}
	.st1{fill:#405C82;}
	.st2{fill:#4291C1;}
	.st3{fill:#FFFFFF;}
	.st4{font-family:'Poppins-Light';}
	.st5{font-size:40.3487px;}
</style>
<g>
	<rect class="st0" width="320" height="280"/>
</g>
<path class="st1" d="M219.8,69.6c18.4,17,29.9,41.3,29.9,68.3c0,51.3-41.6,92.9-92.9,92.9S64,189.1,64,137.9S105.6,45,156.9,45
	C181.1,45,203.3,54.3,219.8,69.6"/>
<path class="st0" d="M194.1,95.3c11.8,10.4,19.3,25.6,19.3,42.6c0,31.3-25.3,56.6-56.6,56.6s-56.6-25.3-56.6-56.6
	s25.3-56.6,56.6-56.6C171.1,81.3,184.2,86.5,194.1,95.3"/>
<path class="st2" d="M200.2,101.4l30.3-20.2c0,0,40.1,46.4,5.4,105.4l-31.2-18.5C204.6,168.2,226.7,130.4,200.2,101.4z"/>
<text transform="matrix(1 0 0 1 121.3555 154.5918)" class="st3 st4 st5">85%</text>
</svg>
