<?xml version="1.0" encoding="utf-8"?>
<!-- Generator: Adobe Illustrator 21.1.0, SVG Export Plug-In . SVG Version: 6.00 Build 0)  -->
<svg version="1.1" id="Layer_1" xmlns="http://www.w3.org/2000/svg" xmlns:xlink="http://www.w3.org/1999/xlink" x="0px" y="0px"
	 viewBox="0 0 750 1248" style="enable-background:new 0 0 750 1248;" xml:space="preserve">
<style type="text/css">
	.st0{fill:#99D9FF;}
	.st1{fill:#3D3D3D;}
	.st2{fill:#FFFFFF;}
	.st3{font-family:'Shrikhand-Regular';}
	.st4{font-size:26.043px;}
	.st5{fill:#405C82;}
	.st6{font-family:'Poppins-Light';}
	.st7{font-size:15.254px;}
	.st8{fill:none;stroke:#73B1C9;stroke-miterlimit:10;}
	.st9{font-size:14.0946px;}
	.st10{fill:#E2574C;}
	.st11{font-size:15.7616px;}
	.st12{font-size:16.7211px;}
	.st13{fill:#E4E5E6;}
	.st14{fill:#C1C4C6;}
	.st15{fill:#4F85BF;}
</style>
<g>
	<rect class="st0" width="750" height="1236"/>
</g>
<g>
	<polygon class="st1" points="729.6,1259.4 855.9,1268.9 731.2,1048.4 688.2,1074.1 629.3,988.7 606.1,1016.7 	"/>
	<polygon class="st2" points="729.6,1039.6 678,934.4 638.4,981.6 691.5,1061.5 	"/>
	<polygon class="st1" points="385,774.5 350.7,812 327.3,715.2 229.7,934.9 383.6,1248 733.4,1248 508.6,813.1 481,863.5 	"/>
	<polygon class="st2" points="333.1,703.1 354.3,793.7 385,756.5 479.5,846.6 504.6,800.5 394.8,575.7 	"/>
	<path class="st1" d="M96.2,924.9C22,1034.6-31.2,1138.3-105.4,1248c172.3,1.8,323.7,9.6,496.1,11.4L232.2,934.8l-72.2,55
		L96.2,924.9z"/>
	<path class="st2" d="M99.4,918.9l58,59c22.6-16.4,45.2-32.9,67.8-49.3c-19.6-36.7-39.2-73.4-58.8-110.1L99.4,918.9z"/>
</g>
<text transform="matrix(1 0 0 1 135.8125 1052.6816)"><tspan x="0" y="0" class="st2 st3 st4">If caught in an avalanche, you should</tspan><tspan x="7.5" y="31.3" class="st2 st3 st4"> ski or snowboard quickly downhill </tspan><tspan x="94.7" y="62.5" class="st2 st3 st4">and  veer off to the side.</tspan></text>
<g>
	<g>
		<g>
			<path class="st5" d="M319.1,40.1c-0.9,1.8-1.4,3.8-1.4,5.9l0,0l0,0c0,7.2,5.8,13,13,13c7.2,0,13-5.8,13-13l0,0l0,0
				c0-7.2-5.8-13-13-13c-0.8,0-1.5,0.1-2.2,0.2c-0.1-1.3-0.5-2.6-1.3-3.8c-1.3-1.8-3.4-2.8-5.6-2.8c-1.5,0-2.9,0.5-4.1,1.4
				c-3.1,2.3-3.7,6.6-1.5,9.7C316.8,38.8,317.9,39.6,319.1,40.1z M330.7,54.5c-3.9,0-7.2-2.7-8.2-6.3h16.4
				C337.9,51.9,334.6,54.5,330.7,54.5z M338.9,43.8h-16.4c1-3.6,4.3-6.3,8.2-6.3C334.6,37.5,337.9,40.2,338.9,43.8z M320.1,31.6
				c0.4-0.3,0.9-0.5,1.5-0.5c0.8,0,1.5,0.4,2,1c0.8,1.1,0.6,2.6-0.5,3.4c-0.4,0.3-0.9,0.5-1.5,0.5c-0.8,0-1.5-0.4-2-1
				C318.7,34,319,32.4,320.1,31.6z"/>
			<path class="st5" d="M363.9,123.6c-1.1-0.6-2.4-0.3-3.1,0.7c0,0-0.6,0.8-2.1,0.4c-0.3-0.1-12.7-3.4-26.8-7.1
				c0.8-7.3-1.1-13.4-5.7-18.1c-1.7-1.8-3.7-3.2-5.8-4.4c2.4-1.5,4.3-4,6.1-7.3c1.7,0.8,3.6,1.2,5.6,1.2c0,0,0,0,0.1,0
				c3.1,0,6.3-0.9,9.5-2.7l5.5,1.5c0.2,0.1,0.4,0.1,0.6,0.1c1,0,1.9-0.7,2.2-1.7c0.3-1.2-0.4-2.4-1.6-2.7l-17.9-4.7
				c1.5-3.9,2.5-7.1,2.4-9.9c-0.3-5.5-4.9-8.1-8.3-9.6c-2.6-1.1-4.7-1.6-6.7-1.6c-6.8,0-9.8,6.6-13.1,14.3l-16.2-4.3l0.3-1.1
				c0.3-1.2-0.4-2.4-1.6-2.7c-1.2-0.3-2.4,0.4-2.7,1.6l-0.3,1.1l-1.9-0.5c-1.2-0.3-2.4,0.4-2.7,1.6c-0.3,1.2,0.4,2.4,1.6,2.7
				l1.9,0.5l-0.3,1.2c-0.3,1.2,0.4,2.4,1.6,2.7c0.2,0.1,0.4,0.1,0.6,0.1c1,0,1.9-0.7,2.2-1.7l0.3-1.2l15.7,4.1
				c-2,5.7-2.4,9.4-1.1,12.6c1.1,2.8,3.4,4.8,7.2,6.4c0,0,0,0,0,0c0,0,0,0,0.1,0c0.9,0.4,1.7,0.7,2.4,0.9
				c8.8,3.3,16.8,8.6,15.8,20.5c-15.8-4.2-32.2-8.5-34.9-9.2c-1.2-0.3-2.4,0.4-2.7,1.6c-0.3,1.2,0.4,2.4,1.6,2.7
				c5.5,1.4,65.4,17.3,66,17.5c0.7,0.2,1.4,0.3,2,0.3c2.7,0,4.5-1.6,5.1-2.7C365.3,125.6,365,124.2,363.9,123.6z M328.5,83.7
				c0.1-0.3,0.3-0.6,0.4-0.9l5.5,1.4C332.2,84.7,330.2,84.5,328.5,83.7z M317.9,62c1.3,0,2.9,0.4,4.9,1.3c4.8,2,5.5,4,5.6,5.7
				c0.1,2.1-0.8,5-2.2,8.5l-2.7-0.7c-0.3-2.1,0-4.4,0.9-6.8c0.4-1.2-0.2-2.4-1.3-2.9c-1.2-0.4-2.4,0.2-2.9,1.3
				c-0.9,2.4-1.3,4.9-1.3,7.1l-9.8-2.6C312.5,65.4,314.4,62,317.9,62z M306.2,87c-0.8-2-0.4-5.1,1.3-9.8l12.3,3.3
				c0.7,1.8,1.7,3.4,3,4.7c-2.9,5.6-5.1,6.8-7.5,6.8c-0.7,0-1.4-0.1-2.3-0.3c-0.7-0.3-1.4-0.5-2.1-0.8
				C308.3,89.8,306.8,88.5,306.2,87z"/>
		</g>
		<g>
			<path class="st5" d="M375.1,40.1c-0.9,1.8-1.4,3.8-1.4,5.9l0,0l0,0c0,7.2,5.8,13,13,13c7.2,0,13-5.8,13-13l0,0l0,0
				c0-7.2-5.8-13-13-13c-0.8,0-1.5,0.1-2.2,0.2c-0.1-1.3-0.5-2.6-1.3-3.8c-1.3-1.8-3.4-2.8-5.6-2.8c-1.5,0-2.9,0.5-4.1,1.4
				c-3.1,2.3-3.7,6.6-1.5,9.7C372.8,38.8,373.9,39.6,375.1,40.1z M386.7,54.5c-3.9,0-7.2-2.7-8.2-6.3h16.4
				C393.9,51.9,390.6,54.5,386.7,54.5z M394.9,43.8h-16.4c1-3.6,4.3-6.3,8.2-6.3C390.6,37.5,393.9,40.2,394.9,43.8z M376.1,31.6
				c0.4-0.3,0.9-0.5,1.5-0.5c0.8,0,1.5,0.4,2,1c0.8,1.1,0.6,2.6-0.5,3.4c-0.4,0.3-0.9,0.5-1.5,0.5c-0.8,0-1.5-0.4-2-1
				C374.7,34,375,32.4,376.1,31.6z"/>
			<path class="st5" d="M419.9,123.6c-1.1-0.6-2.4-0.3-3.1,0.7c0,0-0.6,0.8-2.1,0.4c-0.3-0.1-12.7-3.4-26.8-7.1
				c0.8-7.3-1.1-13.4-5.7-18.1c-1.7-1.8-3.7-3.2-5.8-4.4c2.4-1.5,4.3-4,6.1-7.3c1.7,0.8,3.6,1.2,5.6,1.2c0,0,0,0,0.1,0
				c3.1,0,6.3-0.9,9.5-2.7l5.5,1.5c0.2,0.1,0.4,0.1,0.6,0.1c1,0,1.9-0.7,2.2-1.7c0.3-1.2-0.4-2.4-1.6-2.7l-17.9-4.7
				c1.5-3.9,2.5-7.1,2.4-9.9c-0.3-5.5-4.9-8.1-8.3-9.6c-2.6-1.1-4.7-1.6-6.7-1.6c-6.8,0-9.8,6.6-13.1,14.3l-16.2-4.3l0.3-1.1
				c0.3-1.2-0.4-2.4-1.6-2.7c-1.2-0.3-2.4,0.4-2.7,1.6l-0.3,1.1l-1.9-0.5c-1.2-0.3-2.4,0.4-2.7,1.6c-0.3,1.2,0.4,2.4,1.6,2.7
				l1.9,0.5l-0.3,1.2c-0.3,1.2,0.4,2.4,1.6,2.7c0.2,0.1,0.4,0.1,0.6,0.1c1,0,1.9-0.7,2.2-1.7l0.3-1.2l15.7,4.1
				c-2,5.7-2.4,9.4-1.1,12.6c1.1,2.8,3.4,4.8,7.2,6.4c0,0,0,0,0,0c0,0,0,0,0.1,0c0.9,0.4,1.7,0.7,2.4,0.9
				c8.8,3.3,16.8,8.6,15.8,20.5c-15.8-4.2-32.2-8.5-34.9-9.2c-1.2-0.3-2.4,0.4-2.7,1.6c-0.3,1.2,0.4,2.4,1.6,2.7
				c5.5,1.4,65.4,17.3,66,17.5c0.7,0.2,1.4,0.3,2,0.3c2.7,0,4.5-1.6,5.1-2.7C421.3,125.6,421,124.2,419.9,123.6z M384.5,83.7
				c0.1-0.3,0.3-0.6,0.4-0.9l5.5,1.4C388.2,84.7,386.2,84.5,384.5,83.7z M373.9,62c1.3,0,2.9,0.4,4.9,1.3c4.8,2,5.5,4,5.6,5.7
				c0.1,2.1-0.8,5-2.2,8.5l-2.7-0.7c-0.3-2.1,0-4.4,0.9-6.8c0.4-1.2-0.2-2.4-1.3-2.9c-1.2-0.4-2.4,0.2-2.9,1.3
				c-0.9,2.4-1.3,4.9-1.3,7.1l-9.8-2.6C368.5,65.4,370.4,62,373.9,62z M362.2,87c-0.8-2-0.4-5.1,1.3-9.8l12.3,3.3
				c0.7,1.8,1.7,3.4,3,4.7c-2.9,5.6-5.1,6.8-7.5,6.8c-0.7,0-1.4-0.1-2.3-0.3c-0.7-0.3-1.4-0.5-2.1-0.8
				C364.3,89.8,362.8,88.5,362.2,87z"/>
		</g>
		<g>
			<path class="st5" d="M430.1,42.1c-0.9,1.8-1.4,3.8-1.4,5.9l0,0l0,0c0,7.2,5.8,13,13,13c7.2,0,13-5.8,13-13l0,0l0,0
				c0-7.2-5.8-13-13-13c-0.8,0-1.5,0.1-2.2,0.2c-0.1-1.3-0.5-2.6-1.3-3.8c-1.3-1.8-3.4-2.8-5.6-2.8c-1.5,0-2.9,0.5-4.1,1.4
				c-3.1,2.3-3.7,6.6-1.5,9.7C427.8,40.8,428.9,41.6,430.1,42.1z M441.7,56.5c-3.9,0-7.2-2.7-8.2-6.3h16.4
				C448.9,53.9,445.6,56.5,441.7,56.5z M449.9,45.8h-16.4c1-3.6,4.3-6.3,8.2-6.3C445.6,39.5,448.9,42.2,449.9,45.8z M431.1,33.6
				c0.4-0.3,0.9-0.5,1.5-0.5c0.8,0,1.5,0.4,2,1c0.8,1.1,0.6,2.6-0.5,3.4c-0.4,0.3-0.9,0.5-1.5,0.5c-0.8,0-1.5-0.4-2-1
				C429.7,36,430,34.4,431.1,33.6z"/>
			<path class="st5" d="M474.9,125.6c-1.1-0.6-2.4-0.3-3.1,0.7c0,0-0.6,0.8-2.1,0.4c-0.3-0.1-12.7-3.4-26.8-7.1
				c0.8-7.3-1.1-13.4-5.7-18.1c-1.7-1.8-3.7-3.2-5.8-4.4c2.4-1.5,4.3-4,6.1-7.3c1.7,0.8,3.6,1.2,5.6,1.2c0,0,0,0,0.1,0
				c3.1,0,6.3-0.9,9.5-2.7l5.5,1.5c0.2,0.1,0.4,0.1,0.6,0.1c1,0,1.9-0.7,2.2-1.7c0.3-1.2-0.4-2.4-1.6-2.7l-17.9-4.7
				c1.5-3.9,2.5-7.1,2.4-9.9c-0.3-5.5-4.9-8.1-8.3-9.6c-2.6-1.1-4.7-1.6-6.7-1.6c-6.8,0-9.8,6.6-13.1,14.3l-16.2-4.3l0.3-1.1
				c0.3-1.2-0.4-2.4-1.6-2.7c-1.2-0.3-2.4,0.4-2.7,1.6l-0.3,1.1l-1.9-0.5c-1.2-0.3-2.4,0.4-2.7,1.6c-0.3,1.2,0.4,2.4,1.6,2.7
				l1.9,0.5l-0.3,1.2c-0.3,1.2,0.4,2.4,1.6,2.7c0.2,0.1,0.4,0.1,0.6,0.1c1,0,1.9-0.7,2.2-1.7l0.3-1.2l15.7,4.1
				c-2,5.7-2.4,9.4-1.1,12.6c1.1,2.8,3.4,4.8,7.2,6.4c0,0,0,0,0,0c0,0,0,0,0.1,0c0.9,0.4,1.7,0.7,2.4,0.9
				c8.8,3.3,16.8,8.6,15.8,20.5c-15.8-4.2-32.2-8.5-34.9-9.2c-1.2-0.3-2.4,0.4-2.7,1.6c-0.3,1.2,0.4,2.4,1.6,2.7
				c5.5,1.4,65.4,17.3,66,17.5c0.7,0.2,1.4,0.3,2,0.3c2.7,0,4.5-1.6,5.1-2.7C476.3,127.6,476,126.2,474.9,125.6z M439.5,85.7
				c0.1-0.3,0.3-0.6,0.4-0.9l5.5,1.4C443.2,86.7,441.2,86.5,439.5,85.7z M428.9,64c1.3,0,2.9,0.4,4.9,1.3c4.8,2,5.5,4,5.6,5.7
				c0.1,2.1-0.8,5-2.2,8.5l-2.7-0.7c-0.3-2.1,0-4.4,0.9-6.8c0.4-1.2-0.2-2.4-1.3-2.9c-1.2-0.4-2.4,0.2-2.9,1.3
				c-0.9,2.4-1.3,4.9-1.3,7.1l-9.8-2.6C423.5,67.4,425.4,64,428.9,64z M417.2,89c-0.8-2-0.4-5.1,1.3-9.8l12.3,3.3
				c0.7,1.8,1.7,3.4,3,4.7c-2.9,5.6-5.1,6.8-7.5,6.8c-0.7,0-1.4-0.1-2.3-0.3c-0.7-0.3-1.4-0.5-2.1-0.8
				C419.3,91.8,417.8,90.5,417.2,89z"/>
		</g>
	</g>
	<text transform="matrix(1 0 0 1 258.8667 171.3145)"><tspan x="0" y="0" class="st2 st6 st7">When skiing or snowboarding in</tspan><tspan x="8.5" y="18.3" class="st2 st6 st7">potentially dangerous terrain,</tspan><tspan x="1.1" y="36.6" class="st2 st6 st7">it is important to drop in one at </tspan><tspan x="-10.2" y="54.9" class="st2 st6 st7">a time, traveling between different</tspan><tspan x="58.5" y="73.2" class="st2 st6 st7"> islandsof safety</tspan></text>
	<g>
		<rect x="243.5" y="143.5" class="st8" width="270" height="117"/>
	</g>
</g>
<g>
	<text transform="matrix(1.0823 0 0 1 266.251 422.6611)"><tspan x="0" y="0" class="st2 st6 st9">When planning your trip, have </tspan><tspan x="8.7" y="16.9" class="st2 st6 st9">a clear route and plan your </tspan><tspan x="-6" y="33.8" class="st2 st6 st9">exit strategy in case it is needed</tspan></text>
	<g>
		<rect x="245.5" y="397" class="st8" width="270" height="78.5"/>
	</g>
	<g>
		<path class="st10" d="M364.9,327.4c-3.9-4.1-9.2-6.4-14.8-6.4c-5.6,0-10.8,2.3-14.8,6.4c-8,8.3-8,21.9,0,30.3l14.8,15.4l14.8-15.4
			C372.9,349.3,372.9,335.8,364.9,327.4z M362.3,355.6l-12.2,12.7L338,355.6c-6.9-7.2-6.9-18.8,0-26c3.3-3.4,7.6-5.3,12.2-5.3
			s8.9,1.9,12.2,5.3C369.2,336.7,369.2,348.4,362.3,355.6z"/>
		<path class="st10" d="M413,320.2l11.2-11.7c6-6.3,6-16.5,0-22.8c-3-3.1-7-4.8-11.2-4.8c-4.2,0-8.2,1.7-11.2,4.8
			c-6,6.3-6,16.5,0,22.8L413,320.2z M404.4,287.9c2.3-2.4,5.4-3.7,8.6-3.7c3.2,0,6.3,1.3,8.6,3.7c4.9,5.1,4.9,13.4,0,18.5l-8.6,9
			l-8.6-9C399.5,301.3,399.5,293,404.4,287.9z"/>
		<path class="st10" d="M419.7,368.3c-0.9-0.2-1.9,0.3-2.1,1.2c-0.2,0.8-0.6,1.6-1.1,2.2c-0.6,0.7-0.5,1.7,0.3,2.2
			c0.3,0.2,0.7,0.3,1.1,0.3c0.5,0,1-0.2,1.4-0.6c0.9-1,1.5-2.2,1.8-3.5C421.2,369.4,420.6,368.5,419.7,368.3z"/>
		<path class="st10" d="M383.9,330.6c-0.8,0-1.5-0.1-2.2-0.4c-0.9-0.3-1.9,0.1-2.2,0.9c-0.3,0.8,0.1,1.8,1,2.1
			c1.1,0.4,2.2,0.6,3.4,0.6h0.6c1,0,1.7-0.7,1.7-1.6s-0.8-1.6-1.7-1.6H383.9z"/>
		<path class="st10" d="M379.8,320.5c0.3,0,0.6-0.1,0.9-0.2c0.8-0.4,1.6-0.7,2.5-0.8c1-0.1,1.6-0.9,1.5-1.8c-0.1-0.9-1-1.5-1.9-1.4
			c-1.4,0.1-2.8,0.6-4,1.3c-0.8,0.5-1.1,1.5-0.6,2.2C378.7,320.3,379.3,320.5,379.8,320.5z"/>
		<path class="st10" d="M359.8,373.9h-3.5c-1,0-1.7,0.7-1.7,1.6s0.8,1.6,1.7,1.6h3.5c1,0,1.7-0.7,1.7-1.6S360.8,373.9,359.8,373.9z"
			/>
		<path class="st10" d="M390.9,345.1c-0.1,0-0.3,0-0.4,0c-1,0-1.7,0.8-1.7,1.7c0,0.9,0.8,1.5,1.7,1.5c0,0,0,0,0.1,0l3.4,0
			c1,0,1.7-0.7,1.7-1.6s-0.8-1.6-1.7-1.6H390.9z"/>
		<path class="st10" d="M390,319.4h3.5c1,0,1.7-0.7,1.7-1.6s-0.8-1.6-1.7-1.6H390c-1,0-1.7,0.7-1.7,1.6S389.1,319.4,390,319.4z"/>
		<path class="st10" d="M411.3,345.1c-1,0-1.7,0.7-1.7,1.6s0.8,1.6,1.7,1.6h3.5c1,0,1.7-0.7,1.7-1.6s-0.8-1.6-1.7-1.6H411.3z"/>
		<path class="st10" d="M417.5,332.3c0-0.9-0.8-1.6-1.7-1.6h-3.5c-1,0-1.7,0.7-1.7,1.6s0.8,1.6,1.7,1.6h3.5
			C416.7,333.9,417.5,333.1,417.5,332.3z"/>
		<path class="st10" d="M400.9,348.3h3.5c1,0,1.7-0.7,1.7-1.6s-0.8-1.6-1.7-1.6h-3.5c-1,0-1.7,0.7-1.7,1.6S399.9,348.3,400.9,348.3z
			"/>
		<path class="st10" d="M403.9,319.4c1,0,1.7-0.7,1.7-1.6s-0.8-1.6-1.7-1.6h-3.5c-1,0-1.7,0.7-1.7,1.6s0.8,1.6,1.7,1.6H403.9z"/>
		<path class="st10" d="M391.5,330.6c-1,0-1.7,0.7-1.7,1.6s0.8,1.6,1.7,1.6h3.5c1,0,1.7-0.7,1.7-1.6s-0.8-1.6-1.7-1.6H391.5z"/>
		<path class="st10" d="M407.1,332.3c0-0.9-0.8-1.6-1.7-1.6h-3.5c-1,0-1.7,0.7-1.7,1.6s0.8,1.6,1.7,1.6h3.5
			C406.3,333.9,407.1,333.1,407.1,332.3z"/>
		<path class="st10" d="M431.5,338.1c-0.2-0.9-1-1.5-2-1.3c-0.9,0.1-1.6,1-1.4,1.8c0,0.3,0.1,0.6,0.1,0.9c0,0.5-0.1,1.1-0.2,1.6
			c-0.3,0.8,0.3,1.7,1.2,2c0.2,0,0.3,0.1,0.5,0.1c0.8,0,1.4-0.5,1.7-1.2c0.3-0.8,0.4-1.6,0.4-2.5C431.6,339,431.6,338.5,431.5,338.1
			z"/>
		<path class="st10" d="M401.4,373.9h-3.5c-1,0-1.7,0.7-1.7,1.6s0.8,1.6,1.7,1.6h3.5c1,0,1.7-0.7,1.7-1.6S402.4,373.9,401.4,373.9z"
			/>
		<path class="st10" d="M391,373.9h-3.5c-1,0-1.7,0.7-1.7,1.6s0.8,1.6,1.7,1.6h3.5c1,0,1.7-0.7,1.7-1.6S392,373.9,391,373.9z"/>
		<path class="st10" d="M410.1,361.1c0-0.9-0.8-1.6-1.7-1.6h-3.5c-1,0-1.7,0.7-1.7,1.6c0,0.9,0.8,1.6,1.7,1.6h3.5
			C409.3,362.7,410.1,362,410.1,361.1z"/>
		<path class="st10" d="M399.7,361.1c0-0.9-0.8-1.6-1.7-1.6h-3.5c-1,0-1.7,0.7-1.7,1.6c0,0.9,0.8,1.6,1.7,1.6h3.5
			C398.9,362.7,399.7,362,399.7,361.1z"/>
		<path class="st10" d="M411.7,373.9h-3.3c-1,0-1.7,0.7-1.7,1.6s0.8,1.6,1.7,1.6l3.4,0l0.1-1.6v1.6c1,0,1.7-0.7,1.7-1.6
			C413.5,374.6,412.6,373.9,411.7,373.9z"/>
		<path class="st10" d="M417.8,365.4c0.4,0,0.8-0.1,1.1-0.3c0.8-0.5,0.9-1.6,0.3-2.2c-0.9-1-2-1.9-3.3-2.4c-0.9-0.4-1.9-0.1-2.3,0.7
			c-0.4,0.8-0.1,1.8,0.8,2.1c0.8,0.4,1.5,0.9,2.1,1.6C416.8,365.2,417.3,365.4,417.8,365.4z"/>
		<path class="st10" d="M424.4,344.6c-0.7,0.3-1.5,0.4-2.3,0.4h-0.4c-1,0-1.7,0.7-1.7,1.6s0.8,1.6,1.7,1.6h0.4
			c1.3,0,2.5-0.2,3.7-0.7c0.9-0.3,1.3-1.3,0.9-2.1C426.3,344.7,425.3,344.3,424.4,344.6z"/>
		<path class="st10" d="M377.1,328.8c0.9-0.3,1.4-1.2,1.1-2c-0.2-0.6-0.3-1.1-0.3-1.7c0-0.2,0-0.5,0-0.7c0.1-0.9-0.6-1.7-1.5-1.8
			c-1-0.1-1.8,0.5-1.9,1.4c0,0.4-0.1,0.7-0.1,1.1c0,0.9,0.2,1.9,0.5,2.8c0.2,0.7,0.9,1.1,1.6,1.1
			C376.7,328.9,376.9,328.9,377.1,328.8z"/>
		<path class="st10" d="M370.2,373.9h-3.5c-1,0-1.7,0.7-1.7,1.6s0.8,1.6,1.7,1.6h3.5c1,0,1.7-0.7,1.7-1.6S371.2,373.9,370.2,373.9z"
			/>
		<path class="st10" d="M387.6,362c0.7,0,1.3-0.3,1.6-0.9c0.4-0.8,0-1.8-0.9-2.1c-0.8-0.3-1.5-0.9-2.1-1.5c-0.6-0.7-1.7-0.8-2.4-0.2
			c-0.7,0.6-0.8,1.6-0.2,2.3c0.9,1,2.1,1.8,3.3,2.3C387.1,362,387.4,362,387.6,362z"/>
		<path class="st10" d="M426.8,331.8c-1.2-0.7-2.6-1.1-4-1.2c-1-0.1-1.8,0.6-1.9,1.5c-0.1,0.9,0.6,1.7,1.6,1.7
			c0.9,0.1,1.8,0.3,2.5,0.7c0.3,0.1,0.6,0.2,0.9,0.2c0.6,0,1.2-0.3,1.5-0.8C428,333.3,427.7,332.3,426.8,331.8z"/>
		<path class="st10" d="M380.6,373.9h-3.5c-1,0-1.7,0.7-1.7,1.6s0.8,1.6,1.7,1.6h3.5c1,0,1.7-0.7,1.7-1.6S381.6,373.9,380.6,373.9z"
			/>
		<path class="st10" d="M384.9,352.8c0.2-0.8,0.5-1.6,1.1-2.3c0.6-0.7,0.4-1.7-0.4-2.2c-0.8-0.5-1.9-0.4-2.4,0.3
			c-0.8,1.1-1.4,2.3-1.7,3.6c-0.2,0.9,0.4,1.7,1.4,1.9c0.1,0,0.2,0,0.3,0C384,354.1,384.8,353.6,384.9,352.8z"/>
		<path class="st10" d="M413.4,305c5.3,0,9.5-4,9.5-8.8c0-4.9-4.3-8.8-9.5-8.8c-5.3,0-9.5,4-9.5,8.8
			C403.9,301.1,408.2,305,413.4,305z M413.4,290.6c3.3,0,6.1,2.5,6.1,5.6c0,3.1-2.7,5.6-6.1,5.6c-3.3,0-6.1-2.5-6.1-5.6
			C407.3,293.1,410.1,290.6,413.4,290.6z"/>
		<path class="st10" d="M350.1,330.6c-5.7,0-10.4,4.3-10.4,9.6c0,5.3,4.7,9.6,10.4,9.6s10.4-4.3,10.4-9.6
			C360.5,335,355.9,330.6,350.1,330.6z M350.1,346.7c-3.8,0-6.9-2.9-6.9-6.4c0-3.5,3.1-6.4,6.9-6.4s6.9,2.9,6.9,6.4
			C357.1,343.8,354,346.7,350.1,346.7z"/>
	</g>
</g>
<g>
	<text transform="matrix(1 0 0 1 491.4385 611.8096)"><tspan x="0" y="0" class="st2 st6 st11">1 out of 3 avalanche victims</tspan><tspan x="-15.4" y="18.9" class="st2 st6 st11">are killed by impact from falling</tspan><tspan x="67.6" y="37.8" class="st2 st6 st11">or debree.</tspan></text>
	<g>
		<rect x="472.5" y="585.5" class="st8" width="252" height="77"/>
	</g>
	<g>
		<path class="st5" d="M621.5,472.2c0.4,0,0.7,0.2,1.1,0.4c-0.2,0-0.5-0.2-0.7-0.2c-0.9,0-1.8,0.7-1.8,1.8l-0.5,5.7v-5.7
			C619.6,473.1,620.5,472.2,621.5,472.2z"/>
		<path class="st5" d="M669,474.5V503c0,2-1.8,3.6-3.9,3.2c-1.6-0.2-2.7-1.6-2.9-3l-2.7-29.2c0-0.9-0.9-1.8-1.8-1.8
			c-1.1,0-2,0.9-2,2v86c0,2.3-1.8,4.7-4.1,4.8c-2.7,0.4-4.8-1.6-5.2-4.1l-4.5-45.1c-0.2-1.1-0.9-1.8-2-1.8s-2,0.9-2,2l-3.9,45
			c-0.2,2.3-2.3,4.3-4.7,4.3h-0.9c-2.5,0-4.7-2.1-4.7-4.7v-84.2l2.7,29.2c0.2,1.6,1.4,3,3,3.4c2.3,0.4,4.1-1.4,4.1-3.6v-30.8
			c0-9.5-4.1-17.9-10.7-23.8c4.5-3.2,10-5.2,15.9-5.4C655.6,444.8,669,458,669,474.5z"/>
		<circle class="st5" cx="639.8" cy="427.2" r="13.6"/>
	</g>
	<g>
		<path class="st5" d="M570.5,475v30.3c0,2,1.6,3.6,3.6,3.6l0,0c1.8,0,3.4-1.4,3.6-3.2l2.7-29.6v84c0,2.3-1.8,4.7-4.1,4.8
			c-2.5,0.4-4.8-1.6-5.2-4.1l-4.7-45.1c-0.2-1.1-1.1-1.8-2-1.8c-1.1,0-2,0.7-2,1.8l-3.8,45.1c-0.2,2.3-2.3,4.3-4.7,4.3h-0.9
			c-2.5,0-4.7-2.1-4.7-4.7v-86.3c0-1.1-0.9-2-2-2c-0.9,0-1.8,0.7-1.8,1.8l-2.9,29.2c-0.2,1.8-1.6,3-3.2,3l0,0
			c-1.8,0-3.4-1.4-3.4-3.4V475c0-15.9,12.5-29.4,28.3-29.7c6.6-0.2,12.7,1.8,17.7,5.4C574.6,456.6,570.5,465.4,570.5,475z"/>
		<path class="st5" d="M546.5,472.3c-0.7,0-1.3,0.4-1.6,0.9C545.1,472.7,545.6,472.2,546.5,472.3
			C546.3,472.2,546.3,472.2,546.5,472.3z"/>
		<path class="st5" d="M584.6,474.1v5.7l-0.5-5.9c0-0.9-0.9-1.8-1.8-1.8c-0.2,0-0.5,0-0.7,0.2c0.4-0.2,0.7-0.4,1.1-0.4
			C583.7,472.2,584.6,473.1,584.6,474.1z"/>
		<circle class="st5" cx="564.4" cy="427.2" r="13.6"/>
	</g>
	<g>
		<path class="st10" d="M601.3,442.8c-17.2,0.5-30.8,15-30.8,32.4v30.3c0,2,1.6,3.6,3.6,3.6l0,0c1.8,0,3.4-1.4,3.6-3.2l3-31.7
			c0.2-1.1,0.9-1.8,2-1.8c1.1,0,2,0.9,2,2V568c0,2.9,2.3,5,5,5h1.1c2.7,0,4.8-2,5-4.7l4.1-49.1c0.2-1.1,1.1-2,2.1-2s2.1,0.9,2.1,2
			l5,49.3c0.4,2.7,2.9,4.8,5.6,4.5c2.7-0.4,4.5-2.7,4.5-5.4v-93.5c0-1.1,0.9-2,2-2s2,0.7,2,1.8l3,31.7c0.2,1.6,1.4,3,3,3.4
			c2.3,0.4,4.1-1.4,4.1-3.6v-31C633.9,456.6,619.2,442.3,601.3,442.8z"/>
		<path class="st10" d="M581.6,472.3c-0.5,0.4-0.9,0.9-0.9,1.6l-0.4,2.1v-2C580.3,473.4,580.9,472.7,581.6,472.3z"/>
		<circle class="st10" cx="602.2" cy="423.3" r="14.9"/>
	</g>
</g>
<g>
	<text transform="matrix(1 0 0 1 59.8524 596.1151)"><tspan x="0" y="0" class="st2 st6 st12">When caught, yell, discard </tspan><tspan x="21.8" y="20.1" class="st2 st6 st12">your gear, and move </tspan><tspan x="7.7" y="40.1" class="st2 st6 st12">quickly out of the path of</tspan><tspan x="48.5" y="60.2" class="st2 st6 st12">the avalanche.</tspan></text>
	<rect x="44.7" y="568.5" class="st8" width="250.2" height="101"/>
	<path class="st13" d="M127,550.5c-1.2,0-2.1-1-2.1-2.1V544c0-1.2,1-2.1,2.1-2.1c1.2,0,2.1,1,2.1,2.1v4.3
		C129.1,549.5,128.2,550.5,127,550.5"/>
	<path class="st13" d="M212.7,550.5c-1.2,0-2.1-1-2.1-2.1V544c0-1.2,1-2.1,2.1-2.1c1.2,0,2.1,1,2.1,2.1v4.3
		C214.9,549.5,213.9,550.5,212.7,550.5"/>
	<path class="st5" d="M152.7,548.3L152.7,548.3c-5.9,0-10.7-4.8-10.7-10.7V434.7c0-5.9,4.8-10.7,10.7-10.7c5.9,0,10.7,4.8,10.7,10.7
		v102.9C163.4,543.5,158.6,548.3,152.7,548.3"/>
	<path class="st13" d="M127,539.7c-1.2,0-2.1-1-2.1-2.1V469c0-1.2,1-2.1,2.1-2.1c1.2,0,2.1,1,2.1,2.1v68.6
		C129.1,538.8,128.2,539.7,127,539.7"/>
	<path class="st14" d="M131.3,544h-8.6c-1.2,0-2.1-1-2.1-2.1v-2.1c0-1.2,1-2.1,2.1-2.1h8.6c1.2,0,2.1,1,2.1,2.1v2.1
		C133.4,543.1,132.5,544,131.3,544"/>
	<path class="st13" d="M129.1,518.3h-4.3c-1.2,0-2.1-1-2.1-2.1c0-1.2,1-2.1,2.1-2.1h4.3c1.2,0,2.1,1,2.1,2.1
		C131.3,517.3,130.3,518.3,129.1,518.3"/>
	<path class="st13" d="M129.1,496.9h-4.3c-1.2,0-2.1-1-2.1-2.1c0-1.2,1-2.1,2.1-2.1h4.3c1.2,0,2.1,1,2.1,2.1
		C131.3,495.9,130.3,496.9,129.1,496.9"/>
	<path class="st13" d="M212.7,539.7c-1.2,0-2.1-1-2.1-2.1V469c0-1.2,1-2.1,2.1-2.1c1.2,0,2.1,1,2.1,2.1v68.6
		C214.9,538.8,213.9,539.7,212.7,539.7"/>
	<path class="st10" d="M217,469h-8.6v-40.7c0-2.4,1.9-4.3,4.3-4.3c2.4,0,4.3,1.9,4.3,4.3V469L217,469z"/>
	<g>
		<path class="st13" d="M214.9,518.3h-4.3c-1.2,0-2.1-1-2.1-2.1c0-1.2,1-2.1,2.1-2.1h4.3c1.2,0,2.1,1,2.1,2.1
			C217,517.3,216,518.3,214.9,518.3"/>
		<path class="st13" d="M214.9,496.9h-4.3c-1.2,0-2.1-1-2.1-2.1c0-1.2,1-2.1,2.1-2.1h4.3c1.2,0,2.1,1,2.1,2.1
			C217,495.9,216,496.9,214.9,496.9"/>
	</g>
	<path class="st15" d="M152.7,544c-3.5,0-6.4-2.9-6.4-6.4v-17.1c0-1.2,1-2.1,2.1-2.1c1.2,0,2.1,1,2.1,2.1v17.1c0,1.2,1,2.1,2.1,2.1
		c1.2,0,2.1,1,2.1,2.1C154.8,543.1,153.9,544,152.7,544"/>
	<path class="st5" d="M187,548.3L187,548.3c-5.9,0-10.7-4.8-10.7-10.7V434.7c0-5.9,4.8-10.7,10.7-10.7c5.9,0,10.7,4.8,10.7,10.7
		v102.9C197.7,543.5,192.9,548.3,187,548.3"/>
	<path class="st15" d="M187,544c-3.5,0-6.4-2.9-6.4-6.4v-17.1c0-1.2,1-2.1,2.1-2.1s2.1,1,2.1,2.1v17.1c0,1.2,1,2.1,2.1,2.1
		c1.2,0,2.1,1,2.1,2.1C189.1,543.1,188.2,544,187,544"/>
	<path class="st10" d="M131.3,469h-8.6v-40.7c0-2.4,1.9-4.3,4.3-4.3c2.4,0,4.3,1.9,4.3,4.3C131.3,428.3,131.3,469,131.3,469z"/>
	<path class="st14" d="M217,544h-8.6c-1.2,0-2.1-1-2.1-2.1v-2.1c0-1.2,1-2.1,2.1-2.1h8.6c1.2,0,2.1,1,2.1,2.1v2.1
		C219.1,543.1,218.2,544,217,544"/>
</g>
</svg>
