<?xml version="1.0" encoding="utf-8"?>
<!-- Generator: Adobe Illustrator 21.1.0, SVG Export Plug-In . SVG Version: 6.00 Build 0)  -->
<svg version="1.1" id="Layer_1" xmlns="http://www.w3.org/2000/svg" xmlns:xlink="http://www.w3.org/1999/xlink" x="0px" y="0px"
	 viewBox="0 0 750 1229" style="enable-background:new 0 0 750 1229;" xml:space="preserve">
<style type="text/css">
	.st0{fill:#3D3D3D;}
	.st1{fill:#99D9FF;}
	.st2{fill:#FFFFFF;}
	.st3{font-family:'Shrikhand-Regular';}
	.st4{font-size:42.1084px;}
	.st5{fill:#C1C4C6;}
	.st6{font-family:'Poppins-Light';}
	.st7{font-size:18.5388px;}
</style>
<g>
	<rect class="st0" width="750" height="1229"/>
</g>
<rect class="st1" width="750" height="150"/>
<text transform="matrix(1 0 0 1 95.2637 83.1396)" class="st2 st3 st4">Avalanche Safety Sources</text>
<g>
	<circle class="st1" cx="375.3" cy="301.2" r="113.7"/>
	<g>
		<path class="st0" d="M444.9,343.1c6.8-0.4,13.6-0.8,20.4-1.2c-6.9-12.1-13.8-24.2-20.6-36.2l-8.1,4.9l-11.1-16.1l-4.4,5.3
			C429,314.1,436.9,328.6,444.9,343.1z"/>
		<polygon class="st2" points="444.4,304 434.6,284.1 427.1,293 437.2,308.1 		"/>
		<polygon class="st0" points="379.2,253.9 372.7,261 368.3,242.7 349.9,284.2 379,343.4 445.1,343.4 402.6,261.2 397.4,270.7 		"/>
		<polygon class="st2" points="369.4,240.4 373.4,257.5 379.2,250.5 397.1,267.5 401.8,258.8 381.1,216.3 		"/>
		<path class="st0" d="M324.7,282.3c-14,20.7-24.1,40.3-38.1,61.1c15.2-0.1,30.4-0.2,45.6-0.3c15.6,0,31.2,0,46.8,0
			c-9.5-19.6-19.1-39.3-28.6-58.9l-13.6,10.4L324.7,282.3z"/>
		<path class="st2" d="M325.3,281.2l11,11.2c4.3-3.1,8.5-6.2,12.8-9.3c-3.7-6.9-7.4-13.9-11.1-20.8L325.3,281.2z"/>
		<path class="st5" d="M459,233.8h-1.6c-0.2,0-0.4-0.2-0.4-0.4V233c0-0.2,0.2-0.4,0.4-0.4h1.6c0.2,0,0.4,0.2,0.4,0.4v0.4
			C459.4,233.6,459.2,233.8,459,233.8"/>
		<path class="st0" d="M452.7,337.7"/>
		<path class="st0" d="M467.7,345.5c-61.6,0.2-123.2,0.4-184.7,0.6c3.4-4.2,6.8-8.4,10.2-12.6c55-1.2,110-2.4,165-3.6
			C461.3,335.1,464.5,340.3,467.7,345.5z"/>
	</g>
</g>
<text transform="matrix(1 0 0 1 14.1611 108.0698)"><tspan x="0" y="0" class="st2 st6 st7">Congratulations! You made it through the quiz.Take a look at these sources for </tspan><tspan x="42.6" y="22.2" class="st2 st6 st7">more indepth explanations of anyinformation you found in this slider. </tspan></text>
</svg>
