<?xml version="1.0" encoding="utf-8"?>
<!-- Generator: Adobe Illustrator 21.1.0, SVG Export Plug-In . SVG Version: 6.00 Build 0)  -->
<svg version="1.1" id="Layer_1" xmlns="http://www.w3.org/2000/svg" xmlns:xlink="http://www.w3.org/1999/xlink" x="0px" y="0px"
	 viewBox="0 0 1323 768" style="enable-background:new 0 0 1323 768;" xml:space="preserve">
<style type="text/css">
	.st0{fill:#E2574C;}
	.st1{fill:#FFFFFF;}
	.st2{font-family:'Shrikhand-Regular';}
	.st3{font-size:54.7418px;}
	.st4{fill:none;stroke:#FFFFFF;stroke-width:3;stroke-miterlimit:10;}
	.st5{font-family:'Poppins-Light';}
	.st6{font-size:22.5449px;}
	.st7{fill:#E2574C;stroke:#FFFFFF;stroke-width:5;stroke-miterlimit:10;}
</style>
<g>
	<rect class="st0" width="1322.5" height="768"/>
</g>
<text transform="matrix(1 0 0 1 568.7297 267.6821)" class="st1 st2 st3">Oh no!</text>
<g>
	<g>
		<path class="st4" d="M767.1,485.3L767.1,485.3c-6.1,7.3-19.2,6.5-29.2-1.9L564.4,338.2c-10-8.4-13.1-21.1-7-28.4
			c6.1-7.3,19.2-6.5,29.2,1.9L760.1,457C770.1,465.3,773.2,478,767.1,485.3"/>
	</g>
	<path class="st4" d="M759.8,479.3c-3.7,4.4-11.5,3.9-17.5-1.1L713.4,454c-2-1.7-2.6-4.2-1.4-5.7c1.2-1.5,3.8-1.3,5.8,0.4l28.9,24.2
		c2,1.7,4.6,1.8,5.8,0.4c1.2-1.5,3.8-1.3,5.8,0.4C760.4,475.3,761.1,477.8,759.8,479.3"/>
</g>
<text transform="matrix(1 0 0 1 451.7209 554.6309)" class="st1 st5 st6">Looks like you died... Care to try again?</text>
<g>
	<g>
		<path class="st4" d="M559.2,487.4L559.2,487.4c-6.3-7.2-3.4-20,6.4-28.5l170.6-148.6c9.8-8.5,22.9-9.6,29.1-2.4
			c6.3,7.2,3.4,20-6.4,28.5L588.3,484.9C578.5,493.5,565.4,494.6,559.2,487.4"/>
	</g>
	<path class="st4" d="M566.3,481.2c-3.8-4.3-2-12,3.8-17.1l28.4-24.8c2-1.7,4.6-1.9,5.8-0.5s0.7,4-1.3,5.7l-28.4,24.8
		c-2,1.7-2.5,4.3-1.3,5.7c1.3,1.4,0.7,4-1.3,5.7C570.1,482.4,567.5,482.6,566.3,481.2"/>
</g>
<g>
	<path class="st7" d="M662.4,326c-33,0-59.8,26.8-59.8,59.8V414c0,1.5,0.7,2.9,1.9,3.8l25.7,19.5v16.1c0,2.6,2.1,4.8,4.8,4.8h3.8
		c2.6,0,4.8-2.1,4.8-4.8v-6.5c0-1.7,1.3-3,3-3l0,0c1.7,0,3,1.3,3,3v6.5c0,2.6,2.1,4.8,4.8,4.8h0.2c2.6,0,4.8-2.1,4.8-4.8v-6.5
		c0-1.7,1.3-3,3-3h0.3c1.7,0,3,1.3,3,3v6.5c0,2.6,2.1,4.8,4.8,4.8h0.2c2.6,0,4.8-2.1,4.8-4.8v-6.5c0-1.7,1.3-3,3-3l0,0
		c1.7,0,3,1.3,3,3v6.5c0,2.6,2.1,4.8,4.8,4.8h3.8c2.6,0,4.8-2.1,4.8-4.8v-16.1l25.7-19.5c1.2-0.9,1.9-2.3,1.9-3.8v-28.2
		C722.2,352.8,695.4,326,662.4,326z M637.4,414.5c-9.1,0-16.5-7.4-16.5-16.5c0-9.1,7.4-16.5,16.5-16.5s16.5,7.4,16.5,16.5
		C653.9,407.1,646.5,414.5,637.4,414.5z M667.1,426.6h-9.4c-2.2,0-3.6-2.3-2.5-4.2l4.7-8.5c1.1-2,3.9-2,5,0l4.7,8.5
		C670.6,424.3,669.3,426.6,667.1,426.6z M687.4,414.5c-9.1,0-16.5-7.4-16.5-16.5c0-9.1,7.4-16.5,16.5-16.5c9.1,0,16.5,7.4,16.5,16.5
		C703.9,407.1,696.5,414.5,687.4,414.5z"/>
</g>
</svg>
