<?xml version="1.0" encoding="utf-8"?>
<!-- Generator: Adobe Illustrator 21.1.0, SVG Export Plug-In . SVG Version: 6.00 Build 0)  -->
<svg version="1.1" id="Layer_1" xmlns="http://www.w3.org/2000/svg" xmlns:xlink="http://www.w3.org/1999/xlink" x="0px" y="0px"
	 viewBox="0 0 72.2 63.1" style="enable-background:new 0 0 72.2 63.1;" xml:space="preserve">
<style type="text/css">
	.st0{fill:#99D9FF;}
	.st1{fill:#405C82;}
	.st2{fill:#4291C1;}
	.st3{fill:#FFFFFF;}
	.st4{font-family:'Poppins-Light';}
	.st5{font-size:9.0987px;}
</style>
<g>
	<rect class="st0" width="72.2" height="63.1"/>
</g>
<path class="st1" d="M49.6,15.7c4.1,3.8,6.7,9.3,6.7,15.4c0,11.6-9.4,20.9-20.9,20.9s-20.9-9.4-20.9-20.9s9.4-20.9,20.9-20.9
	C40.8,10.1,45.8,12.2,49.6,15.7"/>
<path class="st0" d="M43.8,21.5c2.7,2.3,4.4,5.8,4.4,9.6c0,7.1-5.7,12.8-12.8,12.8s-12.8-5.7-12.8-12.8s5.7-12.8,12.8-12.8
	C38.6,18.3,41.5,19.5,43.8,21.5"/>
<path class="st2" d="M45.1,22.9l6.8-4.6c0,0,9,10.5,1.2,23.8l-7-4.2C46.1,37.9,51.1,29.4,45.1,22.9z"/>
<text transform="matrix(1 0 0 1 27.3662 34.8608)" class="st3 st4 st5">85%</text>
</svg>
