<?xml version="1.0" encoding="utf-8"?>
<!-- Generator: Adobe Illustrator 21.1.0, SVG Export Plug-In . SVG Version: 6.00 Build 0)  -->
<svg version="1.1" id="Layer_1" xmlns="http://www.w3.org/2000/svg" xmlns:xlink="http://www.w3.org/1999/xlink" x="0px" y="0px"
	 viewBox="0 0 1366 768" style="enable-background:new 0 0 1366 768;" xml:space="preserve">
<style type="text/css">
	.st0{fill:#99D9FF;}
	.st1{fill:#3D3D3D;}
	.st2{fill:#FFFFFF;}
	.st3{fill:#E2574C;}
	.st4{font-family:'Shrikhand-Regular';}
	.st5{font-size:22.8433px;}
	.st6{fill:#405C82;}
	.st7{font-family:'Poppins-Light';}
	.st8{font-size:15.254px;}
	.st9{fill:none;stroke:#73B1C9;stroke-miterlimit:10;}
	.st10{font-size:22.1612px;}
	.st11{font-size:16.7211px;}
	.st12{fill:#E4E5E6;}
	.st13{fill:#C1C4C6;}
	.st14{fill:#4F85BF;}
	.st15{font-size:15.7616px;}
</style>
<g>
	<rect class="st0" width="1366" height="768"/>
</g>
<polygon class="st1" points="1064.6,792.4 1190.9,801.9 1066.2,581.3 1023.2,607.1 964.3,521.7 941.1,549.7 "/>
<polygon class="st2" points="1064.6,572.5 1013,467.4 973.4,514.5 1026.5,594.5 "/>
<polygon class="st1" points="720,307.5 685.7,344.9 662.3,248.1 564.7,467.9 718.6,781 1068.4,781 843.6,346 816,396.5 "/>
<polygon class="st2" points="668.1,236 689.3,326.7 720,289.4 814.5,379.5 839.6,333.4 729.8,108.6 "/>
<path class="st3" d="M329,632.3c0,0-152.9-37.3-210.7,136.2h126L329,632.3z"/>
<path class="st1" d="M431.2,457.9C357,567.5,303.8,671.3,229.6,781c172.3,1.8,323.7,9.6,496.1,11.4L567.2,467.8l-72.2,55
	L431.2,457.9z"/>
<path class="st2" d="M434.4,451.8l58,59c22.6-16.4,45.2-32.9,67.8-49.3c-19.6-36.7-39.2-73.4-58.8-110.1L434.4,451.8z"/>
<text transform="matrix(1 0 0 1 348.7471 616.7441)"><tspan x="0" y="0" class="st2 st4 st5">If caught in an avalanche, you should ski or snowboard </tspan><tspan x="90.8" y="27.4" class="st2 st4 st5">quickly downhill and  veer off to the side.</tspan></text>
<g>
	<g>
		<g>
			<path class="st6" d="M131.1,192.1c-0.9,1.8-1.4,3.8-1.4,5.9l0,0l0,0c0,7.2,5.8,13,13,13c7.2,0,13-5.8,13-13l0,0l0,0
				c0-7.2-5.8-13-13-13c-0.8,0-1.5,0.1-2.2,0.2c-0.1-1.3-0.5-2.6-1.3-3.8c-1.3-1.8-3.4-2.8-5.6-2.8c-1.5,0-2.9,0.5-4.1,1.4
				c-3.1,2.3-3.7,6.6-1.5,9.7C128.8,190.8,129.9,191.6,131.1,192.1z M142.7,206.5c-3.9,0-7.2-2.7-8.2-6.3h16.4
				C149.9,203.9,146.6,206.5,142.7,206.5z M150.9,195.8h-16.4c1-3.6,4.3-6.3,8.2-6.3C146.6,189.5,149.9,192.2,150.9,195.8z
				 M132.1,183.6c0.4-0.3,0.9-0.5,1.5-0.5c0.8,0,1.5,0.4,2,1c0.8,1.1,0.6,2.6-0.5,3.4c-0.4,0.3-0.9,0.5-1.5,0.5c-0.8,0-1.5-0.4-2-1
				C130.7,186,131,184.4,132.1,183.6z"/>
			<path class="st6" d="M175.9,275.6c-1.1-0.6-2.4-0.3-3.1,0.7c0,0-0.6,0.8-2.1,0.4c-0.3-0.1-12.7-3.4-26.8-7.1
				c0.8-7.3-1.1-13.4-5.7-18.1c-1.7-1.8-3.7-3.2-5.8-4.4c2.4-1.5,4.3-4,6.1-7.3c1.7,0.8,3.6,1.2,5.6,1.2c0,0,0,0,0.1,0
				c3.1,0,6.3-0.9,9.5-2.7l5.5,1.5c0.2,0.1,0.4,0.1,0.6,0.1c1,0,1.9-0.7,2.2-1.7c0.3-1.2-0.4-2.4-1.6-2.7l-17.9-4.7
				c1.5-3.9,2.5-7.1,2.4-9.9c-0.3-5.5-4.9-8.1-8.3-9.6c-2.6-1.1-4.7-1.6-6.7-1.6c-6.8,0-9.8,6.6-13.1,14.3l-16.2-4.3l0.3-1.1
				c0.3-1.2-0.4-2.4-1.6-2.7c-1.2-0.3-2.4,0.4-2.7,1.6l-0.3,1.1l-1.9-0.5c-1.2-0.3-2.4,0.4-2.7,1.6c-0.3,1.2,0.4,2.4,1.6,2.7
				l1.9,0.5l-0.3,1.2c-0.3,1.2,0.4,2.4,1.6,2.7c0.2,0.1,0.4,0.1,0.6,0.1c1,0,1.9-0.7,2.2-1.7l0.3-1.2l15.7,4.1
				c-2,5.7-2.4,9.4-1.1,12.6c1.1,2.8,3.4,4.8,7.2,6.4c0,0,0,0,0,0c0,0,0,0,0.1,0c0.9,0.4,1.7,0.7,2.4,0.9
				c8.8,3.3,16.8,8.6,15.8,20.5c-15.8-4.2-32.2-8.5-34.9-9.2c-1.2-0.3-2.4,0.4-2.7,1.6c-0.3,1.2,0.4,2.4,1.6,2.7
				c5.5,1.4,65.4,17.3,66,17.5c0.7,0.2,1.4,0.3,2,0.3c2.7,0,4.5-1.6,5.1-2.7C177.3,277.6,177,276.2,175.9,275.6z M140.5,235.7
				c0.1-0.3,0.3-0.6,0.4-0.9l5.5,1.4C144.2,236.7,142.2,236.5,140.5,235.7z M129.9,214c1.3,0,2.9,0.4,4.9,1.3c4.8,2,5.5,4,5.6,5.7
				c0.1,2.1-0.8,5-2.2,8.5l-2.7-0.7c-0.3-2.1,0-4.4,0.9-6.8c0.4-1.2-0.2-2.4-1.3-2.9c-1.2-0.4-2.4,0.2-2.9,1.3
				c-0.9,2.4-1.3,4.9-1.3,7.1l-9.8-2.6C124.5,217.4,126.4,214,129.9,214z M118.2,239c-0.8-2-0.4-5.1,1.3-9.8l12.3,3.3
				c0.7,1.8,1.7,3.4,3,4.7c-2.9,5.6-5.1,6.8-7.5,6.8c-0.7,0-1.4-0.1-2.3-0.3c-0.7-0.3-1.4-0.5-2.1-0.8
				C120.3,241.8,118.8,240.5,118.2,239z"/>
		</g>
		<g>
			<path class="st6" d="M187.1,192.1c-0.9,1.8-1.4,3.8-1.4,5.9l0,0l0,0c0,7.2,5.8,13,13,13c7.2,0,13-5.8,13-13l0,0l0,0
				c0-7.2-5.8-13-13-13c-0.8,0-1.5,0.1-2.2,0.2c-0.1-1.3-0.5-2.6-1.3-3.8c-1.3-1.8-3.4-2.8-5.6-2.8c-1.5,0-2.9,0.5-4.1,1.4
				c-3.1,2.3-3.7,6.6-1.5,9.7C184.8,190.8,185.9,191.6,187.1,192.1z M198.7,206.5c-3.9,0-7.2-2.7-8.2-6.3h16.4
				C205.9,203.9,202.6,206.5,198.7,206.5z M206.9,195.8h-16.4c1-3.6,4.3-6.3,8.2-6.3C202.6,189.5,205.9,192.2,206.9,195.8z
				 M188.1,183.6c0.4-0.3,0.9-0.5,1.5-0.5c0.8,0,1.5,0.4,2,1c0.8,1.1,0.6,2.6-0.5,3.4c-0.4,0.3-0.9,0.5-1.5,0.5c-0.8,0-1.5-0.4-2-1
				C186.7,186,187,184.4,188.1,183.6z"/>
			<path class="st6" d="M231.9,275.6c-1.1-0.6-2.4-0.3-3.1,0.7c0,0-0.6,0.8-2.1,0.4c-0.3-0.1-12.7-3.4-26.8-7.1
				c0.8-7.3-1.1-13.4-5.7-18.1c-1.7-1.8-3.7-3.2-5.8-4.4c2.4-1.5,4.3-4,6.1-7.3c1.7,0.8,3.6,1.2,5.6,1.2c0,0,0,0,0.1,0
				c3.1,0,6.3-0.9,9.5-2.7l5.5,1.5c0.2,0.1,0.4,0.1,0.6,0.1c1,0,1.9-0.7,2.2-1.7c0.3-1.2-0.4-2.4-1.6-2.7l-17.9-4.7
				c1.5-3.9,2.5-7.1,2.4-9.9c-0.3-5.5-4.9-8.1-8.3-9.6c-2.6-1.1-4.7-1.6-6.7-1.6c-6.8,0-9.8,6.6-13.1,14.3l-16.2-4.3l0.3-1.1
				c0.3-1.2-0.4-2.4-1.6-2.7c-1.2-0.3-2.4,0.4-2.7,1.6l-0.3,1.1l-1.9-0.5c-1.2-0.3-2.4,0.4-2.7,1.6c-0.3,1.2,0.4,2.4,1.6,2.7
				l1.9,0.5l-0.3,1.2c-0.3,1.2,0.4,2.4,1.6,2.7c0.2,0.1,0.4,0.1,0.6,0.1c1,0,1.9-0.7,2.2-1.7l0.3-1.2l15.7,4.1
				c-2,5.7-2.4,9.4-1.1,12.6c1.1,2.8,3.4,4.8,7.2,6.4c0,0,0,0,0,0c0,0,0,0,0.1,0c0.9,0.4,1.7,0.7,2.4,0.9
				c8.8,3.3,16.8,8.6,15.8,20.5c-15.8-4.2-32.2-8.5-34.9-9.2c-1.2-0.3-2.4,0.4-2.7,1.6c-0.3,1.2,0.4,2.4,1.6,2.7
				c5.5,1.4,65.4,17.3,66,17.5c0.7,0.2,1.4,0.3,2,0.3c2.7,0,4.5-1.6,5.1-2.7C233.3,277.6,233,276.2,231.9,275.6z M196.5,235.7
				c0.1-0.3,0.3-0.6,0.4-0.9l5.5,1.4C200.2,236.7,198.2,236.5,196.5,235.7z M185.9,214c1.3,0,2.9,0.4,4.9,1.3c4.8,2,5.5,4,5.6,5.7
				c0.1,2.1-0.8,5-2.2,8.5l-2.7-0.7c-0.3-2.1,0-4.4,0.9-6.8c0.4-1.2-0.2-2.4-1.3-2.9c-1.2-0.4-2.4,0.2-2.9,1.3
				c-0.9,2.4-1.3,4.9-1.3,7.1l-9.8-2.6C180.5,217.4,182.4,214,185.9,214z M174.2,239c-0.8-2-0.4-5.1,1.3-9.8l12.3,3.3
				c0.7,1.8,1.7,3.4,3,4.7c-2.9,5.6-5.1,6.8-7.5,6.8c-0.7,0-1.4-0.1-2.3-0.3c-0.7-0.3-1.4-0.5-2.1-0.8
				C176.3,241.8,174.8,240.5,174.2,239z"/>
		</g>
		<g>
			<path class="st6" d="M242.1,194.1c-0.9,1.8-1.4,3.8-1.4,5.9l0,0l0,0c0,7.2,5.8,13,13,13c7.2,0,13-5.8,13-13l0,0l0,0
				c0-7.2-5.8-13-13-13c-0.8,0-1.5,0.1-2.2,0.2c-0.1-1.3-0.5-2.6-1.3-3.8c-1.3-1.8-3.4-2.8-5.6-2.8c-1.5,0-2.9,0.5-4.1,1.4
				c-3.1,2.3-3.7,6.6-1.5,9.7C239.8,192.8,240.9,193.6,242.1,194.1z M253.7,208.5c-3.9,0-7.2-2.7-8.2-6.3h16.4
				C260.9,205.9,257.6,208.5,253.7,208.5z M261.9,197.8h-16.4c1-3.6,4.3-6.3,8.2-6.3C257.6,191.5,260.9,194.2,261.9,197.8z
				 M243.1,185.6c0.4-0.3,0.9-0.5,1.5-0.5c0.8,0,1.5,0.4,2,1c0.8,1.1,0.6,2.6-0.5,3.4c-0.4,0.3-0.9,0.5-1.5,0.5c-0.8,0-1.5-0.4-2-1
				C241.7,188,242,186.4,243.1,185.6z"/>
			<path class="st6" d="M286.9,277.6c-1.1-0.6-2.4-0.3-3.1,0.7c0,0-0.6,0.8-2.1,0.4c-0.3-0.1-12.7-3.4-26.8-7.1
				c0.8-7.3-1.1-13.4-5.7-18.1c-1.7-1.8-3.7-3.2-5.8-4.4c2.4-1.5,4.3-4,6.1-7.3c1.7,0.8,3.6,1.2,5.6,1.2c0,0,0,0,0.1,0
				c3.1,0,6.3-0.9,9.5-2.7l5.5,1.5c0.2,0.1,0.4,0.1,0.6,0.1c1,0,1.9-0.7,2.2-1.7c0.3-1.2-0.4-2.4-1.6-2.7l-17.9-4.7
				c1.5-3.9,2.5-7.1,2.4-9.9c-0.3-5.5-4.9-8.1-8.3-9.6c-2.6-1.1-4.7-1.6-6.7-1.6c-6.8,0-9.8,6.6-13.1,14.3l-16.2-4.3l0.3-1.1
				c0.3-1.2-0.4-2.4-1.6-2.7c-1.2-0.3-2.4,0.4-2.7,1.6l-0.3,1.1l-1.9-0.5c-1.2-0.3-2.4,0.4-2.7,1.6c-0.3,1.2,0.4,2.4,1.6,2.7
				l1.9,0.5l-0.3,1.2c-0.3,1.2,0.4,2.4,1.6,2.7c0.2,0.1,0.4,0.1,0.6,0.1c1,0,1.9-0.7,2.2-1.7l0.3-1.2l15.7,4.1
				c-2,5.7-2.4,9.4-1.1,12.6c1.1,2.8,3.4,4.8,7.2,6.4c0,0,0,0,0,0c0,0,0,0,0.1,0c0.9,0.4,1.7,0.7,2.4,0.9
				c8.8,3.3,16.8,8.6,15.8,20.5c-15.8-4.2-32.2-8.5-34.9-9.2c-1.2-0.3-2.4,0.4-2.7,1.6c-0.3,1.2,0.4,2.4,1.6,2.7
				c5.5,1.4,65.4,17.3,66,17.5c0.7,0.2,1.4,0.3,2,0.3c2.7,0,4.5-1.6,5.1-2.7C288.3,279.6,288,278.2,286.9,277.6z M251.5,237.7
				c0.1-0.3,0.3-0.6,0.4-0.9l5.5,1.4C255.2,238.7,253.2,238.5,251.5,237.7z M240.9,216c1.3,0,2.9,0.4,4.9,1.3c4.8,2,5.5,4,5.6,5.7
				c0.1,2.1-0.8,5-2.2,8.5l-2.7-0.7c-0.3-2.1,0-4.4,0.9-6.8c0.4-1.2-0.2-2.4-1.3-2.9c-1.2-0.4-2.4,0.2-2.9,1.3
				c-0.9,2.4-1.3,4.9-1.3,7.1l-9.8-2.6C235.5,219.4,237.4,216,240.9,216z M229.2,241c-0.8-2-0.4-5.1,1.3-9.8l12.3,3.3
				c0.7,1.8,1.7,3.4,3,4.7c-2.9,5.6-5.1,6.8-7.5,6.8c-0.7,0-1.4-0.1-2.3-0.3c-0.7-0.3-1.4-0.5-2.1-0.8
				C231.3,243.8,229.8,242.5,229.2,241z"/>
		</g>
	</g>
	<text transform="matrix(1 0 0 1 70.8667 323.3145)"><tspan x="0" y="0" class="st2 st7 st8">When skiing or snowboarding in</tspan><tspan x="8.5" y="18.3" class="st2 st7 st8">potentially dangerous terrain,</tspan><tspan x="1.1" y="36.6" class="st2 st7 st8">it is important to drop in one at </tspan><tspan x="-10.2" y="54.9" class="st2 st7 st8">a time, traveling between different</tspan><tspan x="58.5" y="73.2" class="st2 st7 st8"> islandsof safety</tspan></text>
	<g>
		<rect x="55.5" y="295.5" class="st9" width="270" height="117"/>
	</g>
</g>
<text transform="matrix(1 0 0 1 372.2516 198.3145)"><tspan x="0" y="0" class="st2 st7 st8">When planning your trip, have </tspan><tspan x="9.4" y="18.3" class="st2 st7 st8">a clear route and plan your </tspan><tspan x="-6.5" y="36.6" class="st2 st7 st8">exit strategy in case it is needed</tspan></text>
<g>
	<rect x="351.5" y="170.5" class="st9" width="270" height="85"/>
</g>
<text transform="matrix(1 0 0 1 175.8521 710.4268)" class="st2 st4 st10">25°-60°</text>
<text transform="matrix(1 0 0 1 60.197 561.1151)"><tspan x="0" y="0" class="st2 st7 st11">Most large avalanches</tspan><tspan x="-9.1" y="20.1" class="st2 st7 st11">occur on slopes that are </tspan><tspan x="29" y="40.1" class="st2 st7 st11">25°-60 degrees.</tspan></text>
<rect x="29.5" y="530.5" class="st9" width="250.2" height="86"/>
<g>
	<text transform="matrix(1 0 0 1 984.8524 253.1151)"><tspan x="0" y="0" class="st2 st7 st11">When caught, yell, discard </tspan><tspan x="21.8" y="20.1" class="st2 st7 st11">your gear, and move </tspan><tspan x="7.7" y="40.1" class="st2 st7 st11">quickly out of the path of</tspan><tspan x="48.5" y="60.2" class="st2 st7 st11">the avalanche.</tspan></text>
	<rect x="969.7" y="225.5" class="st9" width="250.2" height="101"/>
	<g>
		<path class="st12" d="M1052,207.5c-1.2,0-2.1-1-2.1-2.1V201c0-1.2,1-2.1,2.1-2.1s2.1,1,2.1,2.1v4.3
			C1054.1,206.5,1053.2,207.5,1052,207.5"/>
		<path class="st12" d="M1137.7,207.5c-1.2,0-2.1-1-2.1-2.1V201c0-1.2,1-2.1,2.1-2.1c1.2,0,2.1,1,2.1,2.1v4.3
			C1139.9,206.5,1138.9,207.5,1137.7,207.5"/>
	</g>
	<path class="st6" d="M1077.7,205.3L1077.7,205.3c-5.9,0-10.7-4.8-10.7-10.7V91.7c0-5.9,4.8-10.7,10.7-10.7
		c5.9,0,10.7,4.8,10.7,10.7v102.9C1088.4,200.5,1083.6,205.3,1077.7,205.3"/>
	<path class="st12" d="M1052,196.7c-1.2,0-2.1-1-2.1-2.1V126c0-1.2,1-2.1,2.1-2.1s2.1,1,2.1,2.1v68.6
		C1054.1,195.8,1053.2,196.7,1052,196.7"/>
	<path class="st13" d="M1056.3,201h-8.6c-1.2,0-2.1-1-2.1-2.1v-2.1c0-1.2,1-2.1,2.1-2.1h8.6c1.2,0,2.1,1,2.1,2.1v2.1
		C1058.4,200.1,1057.5,201,1056.3,201"/>
	<g>
		<path class="st12" d="M1054.1,175.3h-4.3c-1.2,0-2.1-1-2.1-2.1c0-1.2,1-2.1,2.1-2.1h4.3c1.2,0,2.1,1,2.1,2.1
			C1056.3,174.3,1055.3,175.3,1054.1,175.3"/>
		<path class="st12" d="M1054.1,153.9h-4.3c-1.2,0-2.1-1-2.1-2.1c0-1.2,1-2.1,2.1-2.1h4.3c1.2,0,2.1,1,2.1,2.1
			C1056.3,152.9,1055.3,153.9,1054.1,153.9"/>
		<path class="st12" d="M1137.7,196.7c-1.2,0-2.1-1-2.1-2.1V126c0-1.2,1-2.1,2.1-2.1c1.2,0,2.1,1,2.1,2.1v68.6
			C1139.9,195.8,1138.9,196.7,1137.7,196.7"/>
	</g>
	<path class="st3" d="M1142,126h-8.6V85.3c0-2.4,1.9-4.3,4.3-4.3c2.4,0,4.3,1.9,4.3,4.3V126L1142,126z"/>
	<g>
		<path class="st12" d="M1139.9,175.3h-4.3c-1.2,0-2.1-1-2.1-2.1c0-1.2,1-2.1,2.1-2.1h4.3c1.2,0,2.1,1,2.1,2.1
			C1142,174.3,1141,175.3,1139.9,175.3"/>
		<path class="st12" d="M1139.9,153.9h-4.3c-1.2,0-2.1-1-2.1-2.1c0-1.2,1-2.1,2.1-2.1h4.3c1.2,0,2.1,1,2.1,2.1
			C1142,152.9,1141,153.9,1139.9,153.9"/>
	</g>
	<path class="st14" d="M1077.7,201c-3.5,0-6.4-2.9-6.4-6.4v-17.1c0-1.2,1-2.1,2.1-2.1s2.1,1,2.1,2.1v17.1c0,1.2,1,2.1,2.1,2.1
		c1.2,0,2.1,1,2.1,2.1C1079.8,200.1,1078.9,201,1077.7,201"/>
	<path class="st6" d="M1112,205.3L1112,205.3c-5.9,0-10.7-4.8-10.7-10.7V91.7c0-5.9,4.8-10.7,10.7-10.7s10.7,4.8,10.7,10.7v102.9
		C1122.7,200.5,1117.9,205.3,1112,205.3"/>
	<path class="st14" d="M1112,201c-3.5,0-6.4-2.9-6.4-6.4v-17.1c0-1.2,1-2.1,2.1-2.1c1.2,0,2.1,1,2.1,2.1v17.1c0,1.2,1,2.1,2.1,2.1
		c1.2,0,2.1,1,2.1,2.1C1114.1,200.1,1113.2,201,1112,201"/>
	<path class="st3" d="M1056.3,126h-8.6V85.3c0-2.4,1.9-4.3,4.3-4.3s4.3,1.9,4.3,4.3C1056.3,85.3,1056.3,126,1056.3,126z"/>
</g>
<g>
	<path class="st3" d="M470.9,95.2c-3.9-4.4-9.2-6.9-14.8-6.9c-5.6,0-10.8,2.4-14.8,6.9c-8,9-8,23.7,0,32.8l14.8,16.7l14.8-16.7
		C478.9,119,478.9,104.3,470.9,95.2z M468.3,125.7l-12.2,13.8L444,125.7c-6.9-7.8-6.9-20.4,0-28.2c3.3-3.7,7.6-5.7,12.2-5.7
		s8.9,2,12.2,5.7C475.2,105.3,475.2,117.9,468.3,125.7z"/>
	<path class="st3" d="M519,87.5l11.2-12.6c6-6.8,6-17.8,0-24.6c-3-3.4-7-5.2-11.2-5.2c-4.2,0-8.2,1.8-11.2,5.2c-6,6.8-6,17.8,0,24.6
		L519,87.5z M510.4,52.5c2.3-2.6,5.4-4,8.6-4c3.2,0,6.3,1.4,8.6,4c4.9,5.5,4.9,14.5,0,20l-8.6,9.7l-8.6-9.7
		C505.5,67,505.5,58,510.4,52.5z"/>
	<path class="st3" d="M525.7,139.5c-0.9-0.2-1.9,0.4-2.1,1.3c-0.2,0.9-0.6,1.7-1.1,2.4c-0.6,0.8-0.5,1.8,0.3,2.4
		c0.3,0.2,0.7,0.4,1.1,0.4c0.5,0,1-0.2,1.4-0.7c0.9-1.1,1.5-2.4,1.8-3.8C527.2,140.6,526.6,139.7,525.7,139.5z"/>
	<path class="st3" d="M489.9,98.7c-0.8,0-1.5-0.1-2.2-0.4c-0.9-0.3-1.9,0.1-2.2,1c-0.3,0.9,0.1,1.9,1,2.2c1.1,0.4,2.2,0.6,3.4,0.6
		h0.6c1,0,1.7-0.8,1.7-1.7s-0.8-1.7-1.7-1.7H489.9z"/>
	<path class="st3" d="M485.8,87.8c0.3,0,0.6-0.1,0.9-0.3c0.8-0.5,1.6-0.8,2.5-0.9c1-0.1,1.6-1,1.5-1.9s-1-1.6-1.9-1.5
		c-1.4,0.2-2.8,0.6-4,1.4c-0.8,0.5-1.1,1.6-0.6,2.4C484.7,87.5,485.3,87.8,485.8,87.8z"/>
	<path class="st3" d="M465.8,145.5h-3.5c-1,0-1.7,0.8-1.7,1.7c0,1,0.8,1.7,1.7,1.7h3.5c1,0,1.7-0.8,1.7-1.7
		C467.5,146.3,466.8,145.5,465.8,145.5z"/>
	<path class="st3" d="M496.9,114.3c-0.1,0-0.3,0-0.4,0c-1,0-1.7,0.8-1.7,1.8c0,0.9,0.8,1.7,1.7,1.7c0,0,0,0,0.1,0l3.4,0
		c1,0,1.7-0.8,1.7-1.7s-0.8-1.7-1.7-1.7H496.9z"/>
	<path class="st3" d="M496,86.6h3.5c1,0,1.7-0.8,1.7-1.7c0-1-0.8-1.7-1.7-1.7H496c-1,0-1.7,0.8-1.7,1.7
		C494.3,85.8,495.1,86.6,496,86.6z"/>
	<path class="st3" d="M517.3,114.3c-1,0-1.7,0.8-1.7,1.7s0.8,1.7,1.7,1.7h3.5c1,0,1.7-0.8,1.7-1.7s-0.8-1.7-1.7-1.7H517.3z"/>
	<path class="st3" d="M523.5,100.5c0-1-0.8-1.7-1.7-1.7h-3.5c-1,0-1.7,0.8-1.7,1.7s0.8,1.7,1.7,1.7h3.5
		C522.7,102.2,523.5,101.4,523.5,100.5z"/>
	<path class="st3" d="M506.9,117.8h3.5c1,0,1.7-0.8,1.7-1.7s-0.8-1.7-1.7-1.7h-3.5c-1,0-1.7,0.8-1.7,1.7S505.9,117.8,506.9,117.8z"
		/>
	<path class="st3" d="M509.9,86.6c1,0,1.7-0.8,1.7-1.7c0-1-0.8-1.7-1.7-1.7h-3.5c-1,0-1.7,0.8-1.7,1.7c0,1,0.8,1.7,1.7,1.7H509.9z"
		/>
	<path class="st3" d="M497.5,98.7c-1,0-1.7,0.8-1.7,1.7s0.8,1.7,1.7,1.7h3.5c1,0,1.7-0.8,1.7-1.7s-0.8-1.7-1.7-1.7H497.5z"/>
	<path class="st3" d="M513.1,100.5c0-1-0.8-1.7-1.7-1.7h-3.5c-1,0-1.7,0.8-1.7,1.7s0.8,1.7,1.7,1.7h3.5
		C512.3,102.2,513.1,101.4,513.1,100.5z"/>
	<path class="st3" d="M537.5,106.8c-0.2-0.9-1-1.6-2-1.4c-0.9,0.2-1.6,1-1.4,2c0,0.3,0.1,0.6,0.1,1c0,0.6-0.1,1.2-0.2,1.7
		c-0.3,0.9,0.3,1.9,1.2,2.2c0.2,0,0.3,0.1,0.5,0.1c0.8,0,1.4-0.5,1.7-1.2c0.3-0.9,0.4-1.8,0.4-2.7
		C537.6,107.8,537.6,107.3,537.5,106.8z"/>
	<path class="st3" d="M507.4,145.5h-3.5c-1,0-1.7,0.8-1.7,1.7c0,1,0.8,1.7,1.7,1.7h3.5c1,0,1.7-0.8,1.7-1.7
		C509.1,146.3,508.4,145.5,507.4,145.5z"/>
	<path class="st3" d="M497,145.5h-3.5c-1,0-1.7,0.8-1.7,1.7c0,1,0.8,1.7,1.7,1.7h3.5c1,0,1.7-0.8,1.7-1.7
		C498.7,146.3,498,145.5,497,145.5z"/>
	<path class="st3" d="M516.1,131.7c0-1-0.8-1.7-1.7-1.7h-3.5c-1,0-1.7,0.8-1.7,1.7c0,1,0.8,1.7,1.7,1.7h3.5
		C515.3,133.4,516.1,132.6,516.1,131.7z"/>
	<path class="st3" d="M505.7,131.7c0-1-0.8-1.7-1.7-1.7h-3.5c-1,0-1.7,0.8-1.7,1.7c0,1,0.8,1.7,1.7,1.7h3.5
		C504.9,133.4,505.7,132.6,505.7,131.7z"/>
	<path class="st3" d="M517.7,145.5h-3.3c-1,0-1.7,0.8-1.7,1.7c0,1,0.8,1.7,1.7,1.7l3.4,0l0.1-1.7v1.7c1,0,1.7-0.8,1.7-1.7
		C519.5,146.3,518.6,145.5,517.7,145.5z"/>
	<path class="st3" d="M523.8,136.4c0.4,0,0.8-0.1,1.1-0.4c0.8-0.6,0.9-1.7,0.3-2.4c-0.9-1.1-2-2-3.3-2.6c-0.9-0.4-1.9-0.1-2.3,0.8
		c-0.4,0.9-0.1,1.9,0.8,2.3c0.8,0.4,1.5,1,2.1,1.7C522.8,136.2,523.3,136.4,523.8,136.4z"/>
	<path class="st3" d="M530.4,113.9c-0.7,0.3-1.5,0.5-2.3,0.5h-0.4c-1,0-1.7,0.8-1.7,1.7s0.8,1.7,1.7,1.7h0.4c1.3,0,2.5-0.2,3.7-0.7
		c0.9-0.4,1.3-1.4,0.9-2.3C532.3,113.9,531.3,113.5,530.4,113.9z"/>
	<path class="st3" d="M483.1,96.7c0.9-0.3,1.4-1.3,1.1-2.2c-0.2-0.6-0.3-1.2-0.3-1.9c0-0.3,0-0.5,0-0.8c0.1-0.9-0.6-1.8-1.5-1.9
		c-1-0.1-1.8,0.6-1.9,1.5c0,0.4-0.1,0.8-0.1,1.2c0,1,0.2,2,0.5,3c0.2,0.7,0.9,1.2,1.6,1.2C482.7,96.8,482.9,96.8,483.1,96.7z"/>
	<path class="st3" d="M476.2,145.5h-3.5c-1,0-1.7,0.8-1.7,1.7c0,1,0.8,1.7,1.7,1.7h3.5c1,0,1.7-0.8,1.7-1.7
		C477.9,146.3,477.2,145.5,476.2,145.5z"/>
	<path class="st3" d="M493.6,132.7c0.7,0,1.3-0.4,1.6-1c0.4-0.9,0-1.9-0.9-2.3c-0.8-0.4-1.5-0.9-2.1-1.6c-0.6-0.7-1.7-0.8-2.4-0.2
		c-0.7,0.6-0.8,1.7-0.2,2.4c0.9,1.1,2.1,2,3.3,2.5C493.1,132.6,493.4,132.7,493.6,132.7z"/>
	<path class="st3" d="M532.8,100c-1.2-0.7-2.6-1.1-4-1.3c-1-0.1-1.8,0.6-1.9,1.6c-0.1,1,0.6,1.8,1.6,1.9c0.9,0.1,1.8,0.3,2.5,0.8
		c0.3,0.2,0.6,0.2,0.9,0.2c0.6,0,1.2-0.3,1.5-0.9C534,101.6,533.7,100.5,532.8,100z"/>
	<path class="st3" d="M486.6,145.5h-3.5c-1,0-1.7,0.8-1.7,1.7c0,1,0.8,1.7,1.7,1.7h3.5c1,0,1.7-0.8,1.7-1.7
		C488.3,146.3,487.6,145.5,486.6,145.5z"/>
	<path class="st3" d="M490.9,122.7c0.2-0.9,0.5-1.7,1.1-2.4c0.6-0.8,0.4-1.9-0.4-2.4c-0.8-0.6-1.9-0.4-2.4,0.4
		c-0.8,1.2-1.4,2.4-1.7,3.9c-0.2,0.9,0.4,1.8,1.4,2c0.1,0,0.2,0,0.3,0C490,124.1,490.8,123.5,490.9,122.7z"/>
	<path class="st3" d="M519.4,71c5.3,0,9.5-4.3,9.5-9.5s-4.3-9.5-9.5-9.5c-5.3,0-9.5,4.3-9.5,9.5S514.2,71,519.4,71z M519.4,55.4
		c3.3,0,6.1,2.7,6.1,6.1c0,3.3-2.7,6.1-6.1,6.1s-6.1-2.7-6.1-6.1C513.3,58.1,516.1,55.4,519.4,55.4z"/>
	<path class="st3" d="M456.1,98.7c-5.7,0-10.4,4.7-10.4,10.4s4.7,10.4,10.4,10.4s10.4-4.7,10.4-10.4S461.9,98.7,456.1,98.7z
		 M456.1,116.1c-3.8,0-6.9-3.1-6.9-6.9c0-3.8,3.1-6.9,6.9-6.9s6.9,3.1,6.9,6.9C463.1,113,460,116.1,456.1,116.1z"/>
</g>
<text transform="matrix(1 0 0 1 1119.4385 577.8096)"><tspan x="0" y="0" class="st2 st7 st15">1 out of 3 avalanche victims</tspan><tspan x="-15.4" y="18.9" class="st2 st7 st15">are killed by impact from falling</tspan><tspan x="67.6" y="37.8" class="st2 st7 st15">or debree.</tspan></text>
<g>
	<rect x="1100.5" y="551.5" class="st9" width="252" height="77"/>
</g>
<g>
	<path class="st6" d="M1249.5,438.2c0.4,0,0.7,0.2,1.1,0.4c-0.2,0-0.5-0.2-0.7-0.2c-0.9,0-1.8,0.7-1.8,1.8l-0.5,5.7v-5.7
		C1247.6,439.1,1248.5,438.2,1249.5,438.2z"/>
	<path class="st6" d="M1297,440.5V469c0,2-1.8,3.6-3.9,3.2c-1.6-0.2-2.7-1.6-2.9-3l-2.7-29.2c0-0.9-0.9-1.8-1.8-1.8
		c-1.1,0-2,0.9-2,2v86c0,2.3-1.8,4.7-4.1,4.8c-2.7,0.4-4.8-1.6-5.2-4.1l-4.5-45.1c-0.2-1.1-0.9-1.8-2-1.8s-2,0.9-2,2l-3.9,45
		c-0.2,2.3-2.3,4.3-4.7,4.3h-0.9c-2.5,0-4.7-2.1-4.7-4.7v-84.2l2.7,29.2c0.2,1.6,1.4,3,3,3.4c2.3,0.4,4.1-1.4,4.1-3.6v-30.8
		c0-9.5-4.1-17.9-10.7-23.8c4.5-3.2,10-5.2,15.9-5.4C1283.6,410.8,1297,424,1297,440.5z"/>
	<circle class="st6" cx="1267.8" cy="393.2" r="13.6"/>
</g>
<g>
	<path class="st6" d="M1198.5,441v30.3c0,2,1.6,3.6,3.6,3.6l0,0c1.8,0,3.4-1.4,3.6-3.2l2.7-29.6v84c0,2.3-1.8,4.7-4.1,4.8
		c-2.5,0.4-4.8-1.6-5.2-4.1l-4.7-45.1c-0.2-1.1-1.1-1.8-2-1.8c-1.1,0-2,0.7-2,1.8l-3.8,45.1c-0.2,2.3-2.3,4.3-4.7,4.3h-0.9
		c-2.5,0-4.7-2.1-4.7-4.7v-86.3c0-1.1-0.9-2-2-2c-0.9,0-1.8,0.7-1.8,1.8l-2.9,29.2c-0.2,1.8-1.6,3-3.2,3l0,0c-1.8,0-3.4-1.4-3.4-3.4
		V441c0-15.9,12.5-29.4,28.3-29.7c6.6-0.2,12.7,1.8,17.7,5.4C1202.6,422.6,1198.5,431.4,1198.5,441z"/>
	<path class="st6" d="M1174.5,438.3c-0.7,0-1.3,0.4-1.6,0.9C1173.1,438.7,1173.6,438.2,1174.5,438.3
		C1174.3,438.2,1174.3,438.2,1174.5,438.3z"/>
	<path class="st6" d="M1212.6,440.1v5.7l-0.5-5.9c0-0.9-0.9-1.8-1.8-1.8c-0.2,0-0.5,0-0.7,0.2c0.4-0.2,0.7-0.4,1.1-0.4
		C1211.7,438.2,1212.6,439.1,1212.6,440.1z"/>
	<circle class="st6" cx="1192.4" cy="393.2" r="13.6"/>
</g>
<g>
	<path class="st3" d="M1229.3,408.8c-17.2,0.5-30.8,15-30.8,32.4v30.3c0,2,1.6,3.6,3.6,3.6l0,0c1.8,0,3.4-1.4,3.6-3.2l3-31.7
		c0.2-1.1,0.9-1.8,2-1.8s2,0.9,2,2V534c0,2.9,2.3,5,5,5h1.1c2.7,0,4.8-2,5-4.7l4.1-49.1c0.2-1.1,1.1-2,2.1-2c1.1,0,2.1,0.9,2.1,2
		l5,49.3c0.4,2.7,2.9,4.8,5.6,4.5c2.7-0.4,4.5-2.7,4.5-5.4v-93.5c0-1.1,0.9-2,2-2s2,0.7,2,1.8l3,31.7c0.2,1.6,1.4,3,3,3.4
		c2.3,0.4,4.1-1.4,4.1-3.6v-31C1261.9,422.6,1247.2,408.3,1229.3,408.8z"/>
	<path class="st3" d="M1209.6,438.3c-0.5,0.4-0.9,0.9-0.9,1.6l-0.4,2.1v-2C1208.3,439.4,1208.9,438.7,1209.6,438.3z"/>
	<circle class="st3" cx="1230.2" cy="389.3" r="14.9"/>
</g>
<path class="st13" d="M1142,201h-8.6c-1.2,0-2.1-1-2.1-2.1v-2.1c0-1.2,1-2.1,2.1-2.1h8.6c1.2,0,2.1,1,2.1,2.1v2.1
	C1144.1,200.1,1143.2,201,1142,201"/>
</svg>
