<?xml version="1.0" encoding="utf-8"?>
<!-- Generator: Adobe Illustrator 21.1.0, SVG Export Plug-In . SVG Version: 6.00 Build 0)  -->
<svg version="1.1" id="Layer_1" xmlns="http://www.w3.org/2000/svg" xmlns:xlink="http://www.w3.org/1999/xlink" x="0px" y="0px"
	 viewBox="0 0 1366 768" style="enable-background:new 0 0 1366 768;" xml:space="preserve">
<style type="text/css">
	.st0{fill:#FFFFFF;}
	.st1{font-family:'Poppins-Light';}
	.st2{font-size:16.7211px;}
	.st3{fill:none;stroke:#FFFFFF;stroke-miterlimit:10;}
	.st4{fill:#99D9FF;}
	.st5{fill:#3D3D3D;}
	.st6{fill:none;stroke:#73B1C9;stroke-miterlimit:10;}
	.st7{font-family:'Shrikhand-Regular';}
	.st8{font-size:22.8433px;}
	.st9{fill:#A3AAAF;}
	.st10{fill:#E2574C;}
	.st11{fill:#44688E;}
	.st12{fill:#405C82;}
	.st13{font-size:40.4435px;}
	.st14{fill:#BF392C;}
	.st15{fill:#2F4859;}
</style>
<text transform="matrix(1 0 0 1 1086.2039 301.1151)"><tspan x="0" y="0" class="st0 st1 st2">Wind can erode snow </tspan><tspan x="7.4" y="20.1" class="st0 st1 st2">upwind and deposit </tspan><tspan x="-17.1" y="40.1" class="st0 st1 st2">it downhill. The fastes tway</tspan><tspan x="4.3" y="60.2" class="st0 st1 st2"> to load a slope is not</tspan><tspan x="-1.3" y="80.3" class="st0 st1 st2"> by fallingsnow, but by </tspan><tspan x="14.9" y="100.3" class="st0 st1 st2">wind replacement.</tspan></text>
<rect x="1058.5" y="275" class="st3" width="239.6" height="143.2"/>
<g>
	<rect class="st4" width="1366" height="768"/>
</g>
<polygon class="st5" points="1064.6,789.4 1190.9,798.9 1066.2,578.3 1023.2,604.1 964.3,518.7 941.1,546.7 "/>
<polygon class="st0" points="1064.6,569.5 1013,464.4 973.4,511.5 1026.5,591.5 "/>
<polygon class="st5" points="720,304.5 685.7,341.9 662.3,245.1 564.7,464.9 718.6,778 1068.4,778 843.6,343 816,393.5 "/>
<polygon class="st0" points="668.1,233 689.3,323.7 720,286.4 814.5,376.5 839.6,330.4 729.8,105.6 "/>
<path class="st5" d="M431.2,454.9C357,564.5,303.8,668.3,229.6,778c172.3,1.8,323.7,9.6,496.1,11.4L567.2,464.8l-72.2,55
	L431.2,454.9z"/>
<path class="st0" d="M434.4,448.8l58,59c22.6-16.4,45.2-32.9,67.8-49.3c-19.6-36.7-39.2-73.4-58.8-110.1L434.4,448.8z"/>
<text transform="matrix(1 0 0 1 1001.2366 119.1151)"><tspan x="0" y="0" class="st0 st1 st2">Avalanche beacons can</tspan><tspan x="-7.6" y="20.1" class="st0 st1 st2">emit a pulsing radio signal</tspan><tspan x="-10.5" y="40.1" class="st0 st1 st2">to alert others in your party</tspan><tspan x="5" y="60.2" class="st0 st1 st2">of your location in case</tspan><tspan x="11.4" y="80.3" class="st0 st1 st2">you are burried under</tspan><tspan x="-16.8" y="100.3" class="st0 st1 st2">the surface of the snow slab.</tspan></text>
<rect x="977.4" y="94.5" class="st6" width="250.2" height="141"/>
<text transform="matrix(1 0 0 1 209.5536 112.263)"><tspan x="0" y="0" class="st0 st1 st2">A shovel digs much faster</tspan><tspan x="-4.1" y="20.1" class="st0 st1 st2">than bare or gloved hands</tspan><tspan x="6.3" y="40.1" class="st0 st1 st2">and is essential in giving</tspan><tspan x="14.7" y="60.2" class="st0 st1 st2">those who have been </tspan><tspan x="7.6" y="80.3" class="st0 st1 st2">burried in an avalanche</tspan><tspan x="-12" y="100.3" class="st0 st1 st2">their best chance at survival.</tspan></text>
<rect x="190.8" y="89.4" class="st6" width="250.2" height="136.7"/>
<text transform="matrix(1 0 0 1 92.9507 372.7484)"><tspan x="0" y="0" class="st0 st1 st2">Avalanche rescuers </tspan><tspan x="-18.1" y="20.1" class="st0 st1 st2">generall cary first aid kits</tspan><tspan x="-25.4" y="40.1" class="st0 st1 st2">with them, but in the event</tspan><tspan x="-21.8" y="60.2" class="st0 st1 st2">you are the first person to</tspan><tspan x="-16.5" y="80.3" class="st0 st1 st2">be on site, it is important</tspan><tspan x="-19.2" y="100.3" class="st0 st1 st2">to be able to treat minor </tspan><tspan x="-0.1" y="120.4" class="st0 st1 st2">injuries immediately.</tspan></text>
<rect x="57.2" y="346.7" class="st6" width="239.6" height="160.8"/>
<text transform="matrix(1 0 0 1 373.9116 610.7441)"><tspan x="0" y="0" class="st0 st7 st8">With the right equipment, you are able to survive for</tspan><tspan x="48.1" y="27.4" class="st0 st7 st8"> up to 2 hours when burried in an avalanche.</tspan></text>
<g>
	<path class="st5" d="M597,237.8v-40.4v-10.1h-74.1v10.1v40.4l36.7,23.6h0.3L597,237.8z"/>
	<path class="st5" d="M549.8,187.3h20.2v-16.8h-20.2V187.3z"/>
</g>
<path class="st9" d="M522.9,187.3v33.7l36.7,23.6h0.3l37.1-23.6v-33.7H522.9z"/>
<path class="st9" d="M563.3,106.4h-6.7c-1,0-2.4,0-3.4-0.3v64.3h13.5v-64.3C565.7,106.4,564.3,106.4,563.3,106.4"/>
<path class="st5" d="M563.3,109.8h-6.7c-13.1,0-23.6-10.4-23.6-23.6V69.4h13.5c2,0,3.4,1.3,3.4,3.4s-1.3,3.4-3.4,3.4h-6.7v10.1
	c0,9.4,7.4,16.8,16.8,16.8h6.7c9.4,0,16.8-7.4,16.8-16.8V76.1h-6.7c-2,0-3.4-1.3-3.4-3.4s1.3-3.4,3.4-3.4h13.5v16.8
	C586.9,99.3,576.5,109.8,563.3,109.8"/>
<path class="st10" d="M546.5,79.5h26.9V66h-26.9V79.5z"/>
<path class="st11" d="M941,238.9c0,2.8-2.3,5.1-5.1,5.1h-86.5c-2.8,0-5.1-2.3-5.1-5.1V119.6c0-2.8,2.3-5.1,5.1-5.1h86.5
	c2.8,0,5.1,2.3,5.1,5.1V238.9z"/>
<path class="st12" d="M941,238.9V119.6c0-2.8-2.3-5.1-5.1-5.1h-43.3V244h43.3C938.7,244,941,241.7,941,238.9z"/>
<path class="st9" d="M930,148.6c0,2.8-2.3,5.1-5.1,5.1h-64.5c-2.8,0-5.1-2.3-5.1-5.1v-11.7c0-2.8,2.3-5.1,5.1-5.1h64.5
	c2.8,0,5.1,2.3,5.1,5.1L930,148.6L930,148.6z"/>
<path class="st9" d="M875.5,176.8c0,2.8-2.3,5.1-5.1,5.1h-10c-2.8,0-5.1-2.3-5.1-5.1v-9.4c0-2.8,2.3-5.1,5.1-5.1h10
	c2.8,0,5.1,2.3,5.1,5.1V176.8z"/>
<path class="st9" d="M902.7,176.8c0,2.8-2.3,5.1-5.1,5.1h-10c-2.8,0-5.1-2.3-5.1-5.1v-9.4c0-2.8,2.3-5.1,5.1-5.1h10
	c2.8,0,5.1,2.3,5.1,5.1V176.8z"/>
<path class="st9" d="M930,176.8c0,2.8-2.3,5.1-5.1,5.1h-10c-2.8,0-5.1-2.3-5.1-5.1v-9.4c0-2.8,2.3-5.1,5.1-5.1h10
	c2.8,0,5.1,2.3,5.1,5.1V176.8z"/>
<path class="st9" d="M875.5,204.8c0,2.8-2.3,5.1-5.1,5.1h-10c-2.8,0-5.1-2.3-5.1-5.1v-9.4c0-2.8,2.3-5.1,5.1-5.1h10
	c2.8,0,5.1,2.3,5.1,5.1V204.8z"/>
<path class="st9" d="M902.7,204.8c0,2.8-2.3,5.1-5.1,5.1h-10c-2.8,0-5.1-2.3-5.1-5.1v-9.4c0-2.8,2.3-5.1,5.1-5.1h10
	c2.8,0,5.1,2.3,5.1,5.1V204.8z"/>
<path class="st9" d="M930,204.8c0,2.8-2.3,5.1-5.1,5.1h-10c-2.8,0-5.1-2.3-5.1-5.1v-9.4c0-2.8,2.3-5.1,5.1-5.1h10
	c2.8,0,5.1,2.3,5.1,5.1V204.8z"/>
<path class="st10" d="M930,225.1c0,2.8-2.3,5.1-5.1,5.1h-38.7c-2.8,0-5.1-2.3-5.1-5.1v-3.4c0-2.8,2.3-5.1,5.1-5.1h38.7
	c2.8,0,5.1,2.3,5.1,5.1V225.1z"/>
<path class="st12" d="M922.7,142.8c0,1.8-1.4,3.2-3.2,3.2H882c-1.8,0-3.2-1.4-3.2-3.2l0,0c0-1.8,1.4-3.2,3.2-3.2h37.4
	C921.2,139.6,922.7,141,922.7,142.8L922.7,142.8z"/>
<text transform="matrix(1 0 0 1 1083.7534 372.7484)"><tspan x="0" y="0" class="st0 st1 st2">Floatation air bags can</tspan><tspan x="4.8" y="20.1" class="st0 st1 st2">attach to your regular</tspan><tspan x="-6.4" y="40.1" class="st0 st1 st2">backpack and will inflate</tspan><tspan x="-13.8" y="60.2" class="st0 st1 st2">when needed to keep you </tspan><tspan x="-5.3" y="80.3" class="st0 st1 st2">above the surface in the</tspan><tspan x="0.9" y="100.3" class="st0 st1 st2">event of an avalanche.</tspan></text>
<rect x="1059.6" y="346.7" class="st6" width="239.6" height="143.2"/>
<text transform="matrix(1 0 0 1 230.6974 79.7695)" class="st0 st7 st13">SHOVEL</text>
<text transform="matrix(1 0 0 1 1016.4078 82.7695)" class="st0 st7 st13">BEACON</text>
<text transform="matrix(1 0 0 1 69.4434 335.7695)" class="st0 st7 st13">FIRST AID</text>
<text transform="matrix(1 0 0 1 1093.6975 335.7695)" class="st0 st7 st13">AIR BAG</text>
<path class="st12" d="M191.4,523.1h-39.8c-5.5,0-9.9,4.5-9.9,9.9V548h9.9V538c0-2.7,2.2-5,5-5h29.8c2.7,0,5,2.2,5,5v9.9h9.9v-14.9
	C201.3,527.6,196.9,523.1,191.4,523.1z"/>
<path class="st10" d="M101.9,548h139.1c5.5,0,9.9,4.5,9.9,9.9v99.4c0,5.5-4.5,9.9-9.9,9.9H101.9c-5.5,0-9.9-4.5-9.9-9.9v-99.4
	C92,552.4,96.5,548,101.9,548z"/>
<path class="st0" d="M196.3,597.6h-14.9v-14.9c0-2.7-2.2-5-5-5h-9.9c-2.7,0-5,2.2-5,5v14.9h-14.9c-2.7,0-5,2.2-5,5v9.9
	c0,2.8,2.2,5,5,5h14.9v14.9c0,2.8,2.2,5,5,5h9.9c2.7,0,5-2.2,5-5v-14.9h14.9c2.7,0,5-2.2,5-5v-9.9
	C201.3,599.9,199.1,597.6,196.3,597.6z"/>
<g>
	<path class="st14" d="M101.9,548c-5.5,0-9.9,4.5-9.9,9.9v24.8l34.8-34.8C126.8,548,101.9,548,101.9,548z M101.9,667.2h24.9
		L92,632.4v24.9C92,662.8,96.4,667.2,101.9,667.2z M241.1,548h-24.8l34.8,34.8v-24.8C251,552.4,246.5,548,241.1,548z M241.1,667.2
		c5.5,0,9.9-4.5,9.9-9.9v-24.9l-34.8,34.8H241.1z"/>
</g>
<path class="st15" d="M1264.4,538.1h-34.6v-13.9c0-9.6,7.8-17.3,17.3-17.3s17.3,7.8,17.3,17.3L1264.4,538.1L1264.4,538.1z
	 M1235.3,532.5h23.6v-8.3c0-6.5-5.3-11.8-11.8-11.8s-11.8,5.3-11.8,11.8L1235.3,532.5L1235.3,532.5z"/>
<path class="st9" d="M1266.7,527h-38.8c-14.5,0-26.3,11.8-26.3,26.3v72.4c0,5.9,4.8,10.7,10.7,10.7h70c5.9,0,10.7-4.8,10.7-10.7
	v-72.4C1293,538.8,1281.2,527,1266.7,527z"/>
<path class="st10" d="M1266.7,527h-38.8c-14.5,0-26.3,11.8-26.3,26.3v11.1h91.5v-11.1C1293,538.8,1281.2,527,1266.7,527z"/>
<rect x="1210.1" y="599.7" class="st12" width="73" height="27.7"/>
<g>
	<rect x="1219.9" y="564.4" class="st5" width="8.3" height="26"/>
	<rect x="1266" y="564.4" class="st5" width="8.3" height="26"/>
</g>
<g>
	<rect x="1215.6" y="580.1" class="st10" width="17" height="6.4"/>
	<rect x="1261.7" y="580.1" class="st10" width="17" height="6.4"/>
</g>
<path class="st12" d="M1293.1,554.8v109.3c0,8.2,6.7,14.9,14.9,14.9h13.6c11.3,0,20.4-9.8,20.4-22v-49.5
	C1342,578.4,1320.1,554.8,1293.1,554.8z"/>
<path class="st12" d="M1151,606.4v50.3c0,12.3,9.4,22.3,21,22.3h18.7c5.9,0,10.8-4.8,10.8-10.8V552.8
	C1173.6,552.8,1151,576.8,1151,606.4z"/>
</svg>
