<?xml version="1.0" encoding="utf-8"?>
<!-- Generator: Adobe Illustrator 21.1.0, SVG Export Plug-In . SVG Version: 6.00 Build 0)  -->
<svg version="1.1" id="Layer_1" xmlns="http://www.w3.org/2000/svg" xmlns:xlink="http://www.w3.org/1999/xlink" x="0px" y="0px"
	 viewBox="0 0 1366 768" style="enable-background:new 0 0 1366 768;" xml:space="preserve">
<style type="text/css">
	.st0{fill:#3D3D3D;}
	.st1{fill:#99D9FF;}
	.st2{fill:#FFFFFF;}
	.st3{font-family:'Shrikhand-Regular';}
	.st4{font-size:42.1084px;}
	.st5{fill:#C1C4C6;}
	.st6{font-family:'Poppins-Light';}
	.st7{font-size:18.5388px;}
</style>
<g>
	<rect x="0" class="st0" width="1366" height="768"/>
</g>
<rect x="0" class="st1" width="1366" height="150"/>
<text transform="matrix(1 0 0 1 403.2637 83.1396)" class="st2 st3 st4">Avalanche Safety Sources</text>
<g>
	<circle class="st1" cx="690" cy="393.9" r="125.3"/>
	<g>
		<path class="st0" d="M766.7,440c7.5-0.4,15-0.9,22.5-1.3c-7.6-13.3-15.2-26.6-22.8-40l-9,5.4l-12.3-17.8l-4.8,5.8
			C749.1,408.1,757.9,424.1,766.7,440z"/>
		<polygon class="st2" points="766.1,396.9 755.3,375 747.1,384.8 758.1,401.5 		"/>
		<polygon class="st0" points="694.3,341.7 687.1,349.5 682.2,329.3 661.9,375.1 694,440.3 766.9,440.3 720,349.7 714.3,360.2 		"/>
		<polygon class="st2" points="683.5,326.8 687.9,345.7 694.3,337.9 714,356.7 719.2,347.1 696.3,300.3 		"/>
		<path class="st0" d="M634.1,373c-15.4,22.9-26.5,44.5-42,67.3c16.8-0.2,33.5-0.3,50.3-0.3c17.2-0.1,34.4-0.1,51.6,0
			c-10.5-21.6-21-43.3-31.5-64.9l-15,11.5L634.1,373z"/>
		<path class="st2" d="M634.8,371.8l12.1,12.3c4.7-3.4,9.4-6.8,14.1-10.3c-4.1-7.6-8.2-15.3-12.3-22.9L634.8,371.8z"/>
		<path class="st5" d="M782.2,319.5h-1.8c-0.2,0-0.4-0.2-0.4-0.4v-0.4c0-0.2,0.2-0.4,0.4-0.4h1.8c0.2,0,0.4,0.2,0.4,0.4v0.4
			C782.6,319.3,782.4,319.5,782.2,319.5"/>
		<path class="st0" d="M775.3,434.1"/>
		<path class="st0" d="M791.8,442.7c-67.9,0.2-135.8,0.4-203.7,0.7c3.7-4.6,7.5-9.3,11.2-13.9c60.6-1.3,121.2-2.6,181.9-4
			C784.8,431.2,788.3,437,791.8,442.7z"/>
	</g>
</g>
<text transform="matrix(1 0 0 1 259.6211 108.0698)"><tspan x="0" y="0" class="st2 st6 st7">Congratulations! You made it through the quiz.Take a look at these sources for more indepth</tspan><tspan x="167.7" y="22.2" class="st2 st6 st7"> explanations of anyinformation you found in this slider. </tspan></text>
</svg>
